<svg width="79" height="84" viewBox="0 0 79 84" fill="none" xmlns="http://www.w3.org/2000/svg">
<g clip-path="url(#clip0_7302_3)">
<path d="M26.6043 69.58C24.8101 69.58 23.3243 68.474 22.8057 66.766L22.7356 66.528L22.5394 66.388C16.9466 62.524 12.9797 57.19 11.0734 50.946C9.3213 45.22 9.37737 38.822 11.2136 32.942C13.0638 27.02 16.512 21.952 21.1937 18.27C26.1838 14.35 32.3513 12.25 39.0795 12.166L38.0282 16.366C27.207 16.982 18.4744 23.716 15.1524 34.034C11.8023 44.464 15.2085 55.51 23.8149 62.16L24.1794 62.44L24.5859 62.216C25.2026 61.866 25.8614 61.684 26.5342 61.684C27.8799 61.684 29.1834 62.412 29.9404 63.574C30.6692 64.694 30.7533 66.01 30.1786 67.256C29.5339 68.712 28.2022 69.58 26.6043 69.58ZM26.4781 62.706C25.1325 62.706 23.9551 63.728 23.6888 65.156C23.4084 66.584 24.1373 67.872 25.525 68.432C25.9035 68.572 26.2819 68.656 26.6464 68.656C27.992 68.656 29.1554 67.662 29.4498 66.248C29.7441 64.862 29.0853 63.588 27.7677 63.014C27.3472 62.804 26.9127 62.706 26.4781 62.706Z" fill="#FF8F1C"/>
<path d="M40.9718 67.522C51.7929 66.92 60.5255 60.186 63.8335 49.854C67.1836 39.382 63.7635 28.308 55.115 21.658L54.7926 21.406L54.4141 21.574C53.8815 21.798 53.3488 21.924 52.8021 21.924C51.4986 21.924 50.223 21.224 49.4941 20.09C48.7652 18.97 48.6671 17.612 49.2278 16.366C49.8726 14.91 51.2042 14.056 52.7881 14.056C54.4702 14.056 56.4185 15.12 56.7549 17.458L56.797 17.752L57.0353 17.934C62.53 21.91 66.3706 27.272 68.1648 33.432C69.8328 39.144 69.6927 45.262 67.8004 51.114C65.8941 56.98 62.3898 62.02 57.6801 65.702C52.676 69.594 46.5505 71.68 39.9345 71.75L40.9718 67.522ZM52.7741 14.98C51.4285 14.98 50.237 16.002 49.9427 17.416C49.6483 18.802 50.3071 20.062 51.6247 20.65C52.0452 20.846 52.4657 20.944 52.9003 20.944C54.2179 20.944 55.3673 19.964 55.6756 18.578C55.984 17.192 55.3532 15.904 54.0497 15.274L54.0356 15.26C53.6151 15.078 53.1946 14.98 52.7741 14.98Z" fill="#EE2737"/>
<path d="M32.4634 84C30.3047 84 27.8097 82.698 27.1229 79.814L27.0388 79.436L26.6743 79.31C22.259 77.826 18.138 75.516 14.4094 72.436L17.6614 69.972C20.605 72.254 23.8149 74.032 27.4873 75.376L27.9499 75.544L28.2723 75.166C29.3235 73.906 30.8093 73.206 32.4353 73.206C34.8042 73.206 36.8086 74.662 37.5515 76.902L37.7057 77.364L38.1963 77.378C38.6168 77.392 39.0233 77.392 39.4438 77.392C50.8958 77.392 61.3244 72.128 68.0806 62.958C74.8368 53.788 76.7712 42.294 73.3651 31.43L73.2669 31.108L72.9445 30.982C70.2112 29.946 70.4215 27.58 70.5476 26.88C70.842 25.256 72.1736 23.604 74.122 23.604C74.6686 23.604 75.2433 23.73 75.8321 23.996C76.8973 24.486 77.6683 25.41 77.9486 26.544C78.229 27.664 77.9907 28.826 77.3038 29.722L77.0796 30.002L77.1917 30.352C80.9202 42.462 78.7896 55.188 71.3466 65.254C67.7442 70.126 63.0065 74.158 57.6239 76.944C51.947 79.87 45.7936 81.354 39.3317 81.354C38.729 81.354 38.1122 81.34 37.4955 81.312L37.103 81.298L36.8787 81.62C35.8835 83.132 34.2716 84 32.4634 84ZM32.5755 74.116C30.8514 74.116 29.1553 75.166 28.3564 76.72C27.6135 78.162 27.7677 79.8 28.7769 81.214C29.66 82.432 30.9075 83.104 32.2811 83.104C33.9492 83.104 35.6172 82.082 36.4302 80.57C37.1871 79.142 37.075 77.518 36.1218 76.09C35.2668 74.816 34.0052 74.116 32.5755 74.116ZM74.3182 24.612C73.4351 24.612 72.6081 25.004 72.0475 25.704C71.5148 26.376 71.3046 27.244 71.5008 28.098C71.7671 29.414 72.9305 30.324 74.3182 30.324C75.4536 30.324 76.4628 29.68 76.9534 28.658L76.9674 28.644C77.2758 27.944 77.2898 27.16 77.0235 26.446C76.7432 25.732 76.2105 25.158 75.5097 24.85C75.1172 24.696 74.7247 24.612 74.3182 24.612Z" fill="#05868E"/>
<path d="M5.39582 60.27C3.95207 60.27 2.50831 59.444 1.79344 58.226C1.3449 57.442 0.994473 56.182 1.90558 54.572L2.05977 54.306L1.96165 54.012C-1.96312 41.888 0.0413139 29.106 7.45633 18.914C11.0587 13.972 15.8245 9.87 21.2351 7.042C26.954 4.06 33.1355 2.548 39.6254 2.548C40.4244 2.548 41.2374 2.576 42.0504 2.618L42.4428 2.646L42.6671 2.324C43.6904 0.84 45.3023 0 47.0825 0C49.2271 0 51.7922 1.344 52.3669 4.284L52.437 4.662L52.8014 4.802C57.0626 6.398 60.9874 8.652 64.5057 11.522L61.2537 13.986C58.4363 11.76 55.2965 9.996 51.9184 8.736L51.4558 8.568L51.1334 8.932C50.1102 10.122 48.6804 10.766 47.1245 10.766C44.7837 10.766 42.7092 9.268 41.9663 7.042L41.8121 6.58L41.3355 6.552C40.7468 6.524 40.144 6.51 39.5413 6.51C28.1174 6.51 17.6888 11.746 10.9325 20.888C4.19036 29.988 2.22797 41.44 5.56403 52.304L5.67616 52.682L6.06864 52.78C7.17598 53.06 8.10111 53.788 8.5917 54.81C9.0823 55.818 9.09632 56.98 8.63376 57.988C7.98897 59.472 6.83958 60.27 5.39582 60.27ZM5.14351 53.592C4.00813 53.592 3.01293 54.236 2.55036 55.258C2.24199 55.958 2.21395 56.742 2.4943 57.456C2.77464 58.17 3.30728 58.744 4.00813 59.052C4.38659 59.22 4.77907 59.304 5.18557 59.304C6.05462 59.304 6.89564 58.884 7.44231 58.184C7.98897 57.498 8.17119 56.602 7.96094 55.762C7.65256 54.474 6.51718 53.592 5.14351 53.592ZM47.2507 0.882C45.5546 0.882 43.8726 1.904 43.0736 3.416C42.3167 4.83 42.4428 6.468 43.424 7.882C44.2931 9.17 45.5686 9.898 46.9984 9.898C48.6804 9.898 50.3344 8.89 51.1474 7.378C51.9043 5.95 51.7922 4.298 50.811 2.856C49.9279 1.582 48.6664 0.882 47.2507 0.882Z" fill="#05868E"/>
<path d="M27.978 39.97H26.7024L25.6932 32.2L24.684 39.97H23.4084L25.1185 28.7H25.7493C26.2258 28.7 26.3099 29.008 26.366 29.316L27.978 39.97Z" fill="#101820"/>
<path d="M34.594 34.93L36.1359 39.97H37.3554L35.407 33.796L37.2292 28.728H36.0237L34.608 32.802V28.7H33.8371C33.781 28.7 33.7249 28.714 33.6829 28.742C33.6408 28.77 33.5988 28.798 33.5567 28.84C33.5287 28.882 33.5007 28.924 33.4866 28.98C33.4726 29.036 33.4726 29.092 33.4726 29.134V39.97H34.622V34.93H34.594Z" fill="#101820"/>
<path d="M46.6347 39.97H45.3591L44.3499 32.2L43.3406 39.97H42.0651L43.7752 28.7H44.4059C44.8825 28.7 44.9666 29.008 45.0227 29.316L46.6347 39.97Z" fill="#101820"/>
<path d="M51.8069 28.7V39.97H54.0496C54.4281 39.97 54.7925 39.816 55.0589 39.55C55.3252 39.284 55.4794 38.92 55.4794 38.542V30.1C55.4794 29.722 55.3252 29.358 55.0589 29.092C54.7925 28.826 54.4281 28.672 54.0496 28.672H51.8069V28.7ZM54.33 38.234C54.33 38.668 54.0356 38.836 53.7132 38.836H52.9563V29.862H53.7132C54.0356 29.862 54.33 30.03 54.33 30.436V38.234Z" fill="#101820"/>
<path d="M28.7489 55.104H27.4733L26.4641 47.334L25.4409 55.104H24.1653L25.8754 43.834H26.5062C26.9827 43.834 27.0668 44.142 27.1229 44.45L28.7489 55.104Z" fill="#101820"/>
<path d="M37.2152 46.27C37.3273 46.2 37.4114 46.116 37.4675 46.004C37.5236 45.892 37.5516 45.766 37.5376 45.64V45.206C37.5376 44.436 36.9068 43.722 36.1359 43.708H35.407C34.608 43.708 33.9632 44.422 33.9632 45.206V46.368C33.9632 46.368 33.9212 47.124 34.4819 48.16L35.8696 50.75C35.8696 50.75 36.3742 51.618 36.3742 52.276V53.564C36.3742 53.732 36.3181 53.886 36.206 53.998C36.0938 54.11 35.9396 54.18 35.7714 54.18C35.6032 54.18 35.449 54.124 35.3369 54.012C35.2248 53.9 35.1547 53.746 35.1547 53.578V51.604C34.8603 51.73 34.3978 51.94 34.2996 51.968C34.1875 52.038 34.1034 52.122 34.0473 52.234C33.9913 52.346 33.9632 52.472 33.9773 52.598V53.76C33.9913 54.138 34.1314 54.488 34.3978 54.754C34.6641 55.02 35.0145 55.174 35.379 55.188H36.0938C36.2901 55.188 36.4723 55.16 36.6405 55.076C36.8227 55.006 36.9769 54.894 37.1171 54.768C37.2572 54.628 37.3554 54.474 37.4254 54.306C37.4955 54.138 37.5376 53.942 37.5376 53.76V52.332C37.5376 52.332 37.5796 51.576 37.019 50.54L35.6313 47.936C35.6313 47.936 35.1267 47.082 35.1267 46.424V45.36C35.1267 45.192 35.1967 45.038 35.3089 44.926C35.421 44.814 35.5752 44.744 35.7434 44.744C35.9116 44.744 36.0658 44.814 36.1779 44.926C36.2901 45.038 36.3602 45.192 36.3602 45.36V46.662C36.6685 46.536 37.1171 46.326 37.2152 46.27Z" fill="#101820"/>
<path d="M44.0275 43.82V54.852C44.0415 54.936 44.0976 55.09 44.3639 55.09H45.1909V44.268C45.1909 44.212 45.1769 44.142 45.1629 44.086C45.1348 44.03 45.1068 43.974 45.0647 43.932C45.0227 43.89 44.9666 43.862 44.9105 43.834C44.8545 43.806 44.7984 43.806 44.7283 43.806H44.0275V43.82Z" fill="#101820"/>
<path d="M55.4794 55.104H54.2039L53.1946 47.334L52.1854 55.104H50.9099L52.6199 43.834H53.2507C53.7273 43.834 53.8114 44.142 53.8674 44.45L55.4794 55.104Z" fill="#101820"/>
<path d="M2.84536 50.792C3.05562 50.75 3.19579 50.806 3.22382 50.932C3.25186 51.058 3.15374 51.156 2.94348 51.212C2.73323 51.254 2.59305 51.198 2.56502 51.072C2.551 50.932 2.64912 50.834 2.84536 50.792ZM2.92946 51.128C3.09767 51.086 3.16775 51.016 3.15374 50.946C3.13972 50.862 3.02758 50.834 2.85938 50.876C2.70519 50.904 2.60707 50.974 2.63511 51.058C2.66314 51.128 2.76126 51.17 2.92946 51.128Z" fill="#DDE5ED"/>
<path d="M2.56502 50.568L2.64912 50.666L2.59306 50.694L2.49494 50.568L2.48092 50.498L3.11169 50.372L3.1257 50.456L2.56502 50.568Z" fill="#DDE5ED"/>
<path d="M2.66314 49.798C2.8734 49.756 3.01357 49.812 3.02758 49.952C3.05562 50.078 2.94348 50.176 2.74724 50.218C2.53699 50.26 2.41083 50.19 2.3828 50.064C2.35477 49.924 2.4669 49.84 2.66314 49.798ZM2.73323 50.134C2.90143 50.106 2.98553 50.036 2.97151 49.966C2.9575 49.882 2.84536 49.854 2.69117 49.882C2.53699 49.91 2.43887 49.966 2.45288 50.05C2.4669 50.134 2.56502 50.162 2.73323 50.134Z" fill="#DDE5ED"/>
<path d="M2.57904 49.294C2.78929 49.266 2.92946 49.322 2.94348 49.462C2.9575 49.588 2.85938 49.686 2.64912 49.728C2.43887 49.756 2.31271 49.686 2.28468 49.56C2.27066 49.434 2.3828 49.336 2.57904 49.294ZM2.64912 49.644C2.81733 49.616 2.90143 49.546 2.88741 49.476C2.8734 49.392 2.76126 49.364 2.60707 49.392C2.45288 49.42 2.35477 49.476 2.36878 49.56C2.36878 49.63 2.48092 49.672 2.64912 49.644Z" fill="#DDE5ED"/>
<path d="M2.50895 48.804C2.71921 48.776 2.85938 48.832 2.8734 48.972C2.88741 49.098 2.78929 49.196 2.57904 49.224C2.36878 49.252 2.24263 49.182 2.2146 49.056C2.20058 48.93 2.2987 48.832 2.50895 48.804ZM2.56502 49.14C2.73323 49.112 2.81733 49.056 2.80331 48.972C2.78929 48.888 2.67716 48.86 2.52297 48.888C2.36878 48.916 2.27066 48.972 2.28468 49.056C2.2987 49.126 2.39682 49.168 2.56502 49.14Z" fill="#DDE5ED"/>
<path d="M2.24263 48.566L2.31271 48.664L2.25665 48.692L2.15853 48.566L2.14451 48.496L2.77528 48.412L2.78929 48.496L2.24263 48.566Z" fill="#DDE5ED"/>
<path d="M2.36878 47.796C2.57904 47.768 2.71921 47.838 2.73323 47.978C2.74724 48.104 2.64912 48.202 2.43887 48.23C2.22861 48.258 2.10246 48.174 2.08844 48.048C2.06041 47.922 2.17254 47.824 2.36878 47.796ZM2.42485 48.146C2.59305 48.132 2.67716 48.062 2.66314 47.992C2.64912 47.908 2.551 47.88 2.3828 47.894C2.22861 47.908 2.13049 47.964 2.14451 48.048C2.15853 48.118 2.25665 48.16 2.42485 48.146Z" fill="#DDE5ED"/>
<path d="M2.11648 47.558L2.18656 47.67L2.11648 47.698L2.03237 47.572L2.01836 47.502L2.64912 47.432L2.66314 47.516L2.11648 47.558Z" fill="#DDE5ED"/>
<path d="M2.24263 46.592C2.45288 46.578 2.57904 46.634 2.59306 46.774C2.60707 46.9 2.49494 46.998 2.28468 47.012C2.07442 47.026 1.94827 46.956 1.93425 46.83C1.93425 46.69 2.04639 46.606 2.24263 46.592ZM2.28468 46.928C2.45288 46.914 2.53699 46.858 2.53699 46.774C2.52297 46.69 2.42485 46.648 2.25665 46.676C2.10246 46.69 2.00434 46.746 2.00434 46.83C2.01836 46.9 2.11648 46.956 2.28468 46.928Z" fill="#DDE5ED"/>
<path d="M1.99032 46.34L2.06041 46.452L1.99032 46.48L1.90622 46.354V46.284L2.53699 46.228L2.551 46.312L1.99032 46.34Z" fill="#DDE5ED"/>
<path d="M1.94827 45.836L2.01836 45.948L1.94827 45.976L1.86417 45.836V45.766L2.49494 45.724V45.808L1.94827 45.836Z" fill="#DDE5ED"/>
<path d="M2.13049 45.08C2.34075 45.066 2.4669 45.136 2.48092 45.276C2.49494 45.402 2.3828 45.486 2.17254 45.514C1.96229 45.528 1.83614 45.444 1.82212 45.318C1.8081 45.178 1.93425 45.094 2.13049 45.08ZM2.15853 45.43C2.32673 45.416 2.41083 45.36 2.41083 45.29C2.41083 45.206 2.2987 45.164 2.13049 45.178C1.97631 45.192 1.87819 45.234 1.87819 45.318C1.8922 45.388 1.99032 45.43 2.15853 45.43Z" fill="#DDE5ED"/>
<path d="M1.8922 44.828L1.96229 44.94L1.8922 44.954L1.8081 44.814V44.744L2.43887 44.716V44.8L1.8922 44.828Z" fill="#DDE5ED"/>
<path d="M1.86417 44.324L1.93425 44.436L1.86417 44.45L1.78007 44.31V44.24L2.41083 44.212V44.296L1.86417 44.324Z" fill="#DDE5ED"/>
<path d="M2.06041 43.568C2.27066 43.568 2.39682 43.638 2.41083 43.778C2.41083 43.904 2.2987 43.988 2.08844 44.002C1.87819 44.002 1.75203 43.918 1.75203 43.792C1.73802 43.652 1.86417 43.582 2.06041 43.568ZM2.08844 43.918C2.25665 43.918 2.34075 43.862 2.34075 43.778C2.34075 43.694 2.22861 43.652 2.07442 43.652C1.92024 43.652 1.82212 43.694 1.82212 43.792C1.82212 43.876 1.90622 43.918 2.08844 43.918Z" fill="#DDE5ED"/>
<path d="M1.82212 43.302L1.87819 43.414L1.8081 43.428L1.724 43.288V43.218L2.36878 43.204V43.288L1.82212 43.302Z" fill="#DDE5ED"/>
<path d="M2.04639 42.35C2.25665 42.35 2.3828 42.434 2.3828 42.574C2.3828 42.7 2.27066 42.784 2.06041 42.784C1.85015 42.784 1.724 42.7 1.724 42.56C1.724 42.434 1.85015 42.35 2.04639 42.35ZM2.06041 42.7C2.22861 42.7 2.32673 42.644 2.31271 42.574C2.31271 42.49 2.2146 42.448 2.04639 42.448C1.8922 42.448 1.78007 42.49 1.79408 42.574C1.79408 42.644 1.8922 42.7 2.06041 42.7Z" fill="#DDE5ED"/>
<path d="M1.82212 42.084L1.87819 42.196L1.8081 42.21L1.73802 42.07V42H2.36878V42.084H1.82212Z" fill="#DDE5ED"/>
<path d="M1.82212 41.58L1.87819 41.692L1.8081 41.706L1.73802 41.566V41.496L2.36878 41.51V41.594L1.82212 41.58Z" fill="#DDE5ED"/>
<path d="M1.83614 41.062L1.8922 41.174L1.82212 41.188L1.75203 41.048V40.978L2.39682 40.992V41.076L1.83614 41.062Z" fill="#DDE5ED"/>
<path d="M2.08844 40.334C2.2987 40.348 2.42485 40.432 2.41083 40.572C2.41083 40.698 2.28468 40.782 2.07442 40.768C1.86417 40.754 1.75203 40.67 1.75203 40.53C1.76605 40.404 1.8922 40.334 2.08844 40.334ZM2.08844 40.684C2.25665 40.684 2.35477 40.642 2.35477 40.558C2.35477 40.474 2.25665 40.418 2.08844 40.418C1.93425 40.418 1.82212 40.446 1.82212 40.544C1.82212 40.614 1.90622 40.67 2.08844 40.684Z" fill="#DDE5ED"/>
<path d="M2.11648 39.83C2.32673 39.844 2.45288 39.928 2.43887 40.068C2.43887 40.194 2.31271 40.278 2.10246 40.264C1.8922 40.25 1.78007 40.152 1.78007 40.026C1.78007 39.9 1.90622 39.83 2.11648 39.83ZM2.10246 40.18C2.27066 40.194 2.36878 40.138 2.36878 40.068C2.36878 39.984 2.27066 39.928 2.10246 39.928C1.94827 39.914 1.83614 39.956 1.83614 40.04C1.83614 40.11 1.93425 40.166 2.10246 40.18Z" fill="#DDE5ED"/>
<path d="M2.14451 39.326C2.35477 39.34 2.48092 39.424 2.4669 39.564C2.45288 39.69 2.34075 39.76 2.13049 39.76C1.92024 39.746 1.8081 39.648 1.8081 39.522C1.82212 39.382 1.93425 39.312 2.14451 39.326ZM2.13049 39.676C2.2987 39.69 2.39682 39.634 2.39682 39.564C2.39682 39.48 2.2987 39.424 2.14451 39.424C1.99032 39.41 1.87819 39.452 1.87819 39.536C1.86417 39.606 1.96229 39.662 2.13049 39.676Z" fill="#DDE5ED"/>
<path d="M2.17254 38.822C2.3828 38.836 2.50895 38.92 2.49494 39.074C2.48092 39.2 2.36878 39.27 2.15853 39.256C1.94827 39.242 1.83614 39.144 1.85015 39.018C1.85015 38.878 1.97631 38.808 2.17254 38.822ZM2.15853 39.172C2.32673 39.186 2.42485 39.144 2.42485 39.06C2.42485 38.976 2.32673 38.92 2.17254 38.906C2.01836 38.892 1.90622 38.934 1.90622 39.018C1.90622 39.102 1.99032 39.158 2.15853 39.172Z" fill="#DDE5ED"/>
<path d="M2.24263 38.108C2.45288 38.122 2.56502 38.22 2.56502 38.36C2.551 38.486 2.42485 38.556 2.2146 38.542C2.00434 38.528 1.8922 38.416 1.90622 38.29C1.90622 38.164 2.03237 38.094 2.24263 38.108ZM2.2146 38.458C2.3828 38.472 2.48092 38.43 2.48092 38.346C2.49494 38.262 2.3828 38.206 2.22861 38.192C2.07442 38.178 1.96229 38.206 1.96229 38.304C1.96229 38.388 2.04639 38.444 2.2146 38.458Z" fill="#DDE5ED"/>
<path d="M2.03237 37.828L2.07442 37.94L2.00434 37.954L1.94827 37.814L1.96229 37.744L2.59306 37.8L2.57904 37.884L2.03237 37.828Z" fill="#DDE5ED"/>
<path d="M2.08844 37.324L2.13049 37.436L2.06041 37.45L2.00434 37.31L2.01836 37.24L2.64912 37.31L2.63511 37.394L2.08844 37.324Z" fill="#DDE5ED"/>
<path d="M2.39682 36.61C2.60707 36.638 2.71921 36.736 2.70519 36.876C2.69117 37.002 2.56502 37.072 2.35477 37.044C2.14451 37.016 2.03237 36.918 2.04639 36.778C2.07442 36.638 2.20058 36.582 2.39682 36.61ZM2.36878 36.946C2.53699 36.96 2.63511 36.932 2.64912 36.848C2.66314 36.764 2.56502 36.708 2.39682 36.68C2.24263 36.666 2.13049 36.694 2.11648 36.778C2.11648 36.862 2.20058 36.932 2.36878 36.946Z" fill="#DDE5ED"/>
<path d="M2.2146 36.316L2.25665 36.442L2.18656 36.456L2.13049 36.302L2.14451 36.232L2.77528 36.316L2.76126 36.4L2.2146 36.316Z" fill="#DDE5ED"/>
<path d="M2.28468 35.812L2.32673 35.938H2.25665L2.20058 35.784L2.2146 35.714L2.84536 35.812L2.83134 35.896L2.28468 35.812Z" fill="#DDE5ED"/>
<path d="M2.35477 35.308L2.39682 35.434H2.32673L2.27066 35.28L2.28468 35.21L2.91545 35.308L2.90143 35.392L2.35477 35.308Z" fill="#DDE5ED"/>
<path d="M2.43887 34.804L2.48092 34.93H2.41083L2.35477 34.776L2.36878 34.706L2.99955 34.818L2.98553 34.902L2.43887 34.804Z" fill="#DDE5ED"/>
<path d="M2.83134 33.908C3.0416 33.95 3.15374 34.048 3.1257 34.188C3.09767 34.314 2.97151 34.37 2.76126 34.328C2.551 34.286 2.45288 34.174 2.48092 34.048C2.50895 33.922 2.63511 33.88 2.83134 33.908ZM2.77528 34.258C2.94348 34.286 3.0416 34.258 3.05562 34.174C3.06963 34.09 2.98553 34.02 2.81733 33.992C2.66314 33.964 2.551 33.978 2.53699 34.076C2.53699 34.146 2.60707 34.23 2.77528 34.258Z" fill="#DDE5ED"/>
<path d="M2.66314 33.6L2.70519 33.726H2.63511L2.59306 33.572L2.60707 33.502L3.23784 33.628L3.22382 33.712L2.66314 33.6Z" fill="#DDE5ED"/>
<path d="M2.76126 33.11L2.78929 33.236H2.71921L2.67716 33.082L2.69117 33.012L3.30792 33.152L3.29391 33.236L2.76126 33.11Z" fill="#DDE5ED"/>
<path d="M2.8734 32.606L2.90143 32.732H2.83134L2.78929 32.578L2.80331 32.508L3.42006 32.648L3.40604 32.732L2.8734 32.606Z" fill="#DDE5ED"/>
<path d="M3.27989 31.934C3.49014 31.99 3.58826 32.088 3.56023 32.228C3.5322 32.354 3.39203 32.41 3.19579 32.354C2.98553 32.298 2.90143 32.186 2.92946 32.06C2.94348 31.934 3.08365 31.892 3.27989 31.934ZM3.2098 32.284C3.37801 32.326 3.47613 32.298 3.49014 32.214C3.50416 32.13 3.42006 32.06 3.26587 32.018C3.11168 31.976 2.99955 31.99 2.98553 32.088C2.9575 32.158 3.02758 32.242 3.2098 32.284Z" fill="#DDE5ED"/>
<path d="M3.11169 31.626L3.13972 31.752H3.06963L3.02758 31.598L3.0416 31.528L3.65835 31.682L3.64433 31.766L3.11169 31.626Z" fill="#DDE5ED"/>
<path d="M3.25186 31.136L3.27989 31.262H3.2098L3.16775 31.108L3.18177 31.038L3.79852 31.206L3.77049 31.29L3.25186 31.136Z" fill="#DDE5ED"/>
<path d="M3.37801 30.646L3.40604 30.772H3.33596L3.30792 30.618L3.32194 30.548L3.93869 30.73L3.92467 30.8L3.37801 30.646Z" fill="#DDE5ED"/>
<path d="M3.88262 29.806C4.09288 29.876 4.17698 29.988 4.13493 30.114C4.09288 30.24 3.96672 30.282 3.75647 30.226C3.54621 30.17 3.46211 30.044 3.50416 29.918C3.54621 29.778 3.68638 29.736 3.88262 29.806ZM3.7845 30.128C3.93869 30.17 4.05083 30.156 4.06484 30.086C4.09288 30.002 4.00877 29.932 3.85459 29.89C3.7004 29.848 3.58826 29.848 3.57425 29.932C3.54621 30.002 3.6163 30.086 3.7845 30.128Z" fill="#DDE5ED"/>
<path d="M3.74245 29.47L3.77049 29.596H3.7004L3.67237 29.442L3.7004 29.372L4.30313 29.568L4.2751 29.652L3.74245 29.47Z" fill="#DDE5ED"/>
<path d="M3.89664 28.994L3.91066 29.12H3.84057L3.81254 28.966L3.84057 28.896L4.4433 29.092L4.41527 29.176L3.89664 28.994Z" fill="#DDE5ED"/>
<path d="M4.3592 28.364C4.56946 28.434 4.65356 28.546 4.59749 28.686C4.55544 28.798 4.41527 28.84 4.21903 28.77C4.02279 28.7 3.93869 28.574 3.98074 28.448C4.02279 28.322 4.16296 28.294 4.3592 28.364ZM4.24706 28.686C4.40125 28.742 4.51339 28.728 4.54142 28.644C4.56946 28.56 4.48535 28.49 4.33117 28.434C4.17698 28.378 4.07886 28.392 4.03681 28.476C4.02279 28.546 4.09288 28.63 4.24706 28.686Z" fill="#DDE5ED"/>
<path d="M4.52741 27.888C4.73766 27.958 4.82176 28.084 4.76569 28.21C4.72364 28.322 4.58347 28.364 4.38723 28.294C4.191 28.224 4.10689 28.098 4.14895 27.972C4.20501 27.846 4.34518 27.818 4.52741 27.888ZM4.42929 28.21C4.58347 28.266 4.69561 28.252 4.72364 28.182C4.75168 28.098 4.66758 28.028 4.51339 27.972C4.3592 27.916 4.26108 27.916 4.21903 28C4.191 28.07 4.26108 28.154 4.42929 28.21Z" fill="#DDE5ED"/>
<path d="M4.41527 27.552L4.42929 27.678L4.3592 27.664L4.34518 27.51L4.37322 27.44L4.96193 27.664L4.9339 27.748L4.41527 27.552Z" fill="#DDE5ED"/>
<path d="M4.90587 26.95C5.1021 27.034 5.18621 27.146 5.13014 27.286C5.08809 27.398 4.94792 27.44 4.75168 27.356C4.55544 27.272 4.47134 27.146 4.52741 27.034C4.56946 26.894 4.70963 26.866 4.90587 26.95ZM4.77971 27.272C4.9339 27.328 5.04604 27.328 5.07407 27.244C5.1021 27.16 5.03202 27.09 4.87783 27.02C4.73766 26.964 4.62552 26.964 4.58347 27.048C4.55544 27.118 4.62552 27.202 4.77971 27.272Z" fill="#DDE5ED"/>
<path d="M4.79373 26.614L4.80775 26.74L4.73766 26.726L4.72364 26.572L4.75168 26.502L5.34039 26.754L5.31236 26.824L4.79373 26.614Z" fill="#DDE5ED"/>
<path d="M5.38244 25.83C5.57868 25.914 5.66278 26.04 5.60672 26.166C5.55065 26.278 5.41048 26.306 5.22826 26.222C5.03202 26.138 4.96193 25.998 5.018 25.886C5.06005 25.76 5.20022 25.746 5.38244 25.83ZM5.25629 26.152C5.41048 26.222 5.5086 26.208 5.55065 26.138C5.5927 26.054 5.5086 25.984 5.35441 25.914C5.21424 25.844 5.1021 25.844 5.06005 25.928C5.03202 25.984 5.08809 26.082 5.25629 26.152Z" fill="#DDE5ED"/>
<path d="M5.28433 25.48L5.29834 25.606L5.22826 25.592L5.21424 25.438L5.24227 25.368L5.81697 25.634L5.78894 25.704L5.28433 25.48Z" fill="#DDE5ED"/>
<path d="M5.49458 25.032V25.158L5.4245 25.144L5.41048 24.99L5.46655 24.92L6.04124 25.2L5.99919 25.27L5.49458 25.032Z" fill="#DDE5ED"/>
<path d="M5.71885 24.57V24.696L5.64877 24.682V24.528L5.6768 24.458L6.2515 24.738L6.20945 24.808L5.71885 24.57Z" fill="#DDE5ED"/>
<path d="M6.26552 24.01C6.46176 24.108 6.53184 24.234 6.46176 24.36C6.40569 24.472 6.26552 24.486 6.06928 24.402C5.87304 24.304 5.81697 24.164 5.87304 24.052C5.94313 23.926 6.0833 23.912 6.26552 24.01ZM6.11133 24.318C6.26552 24.388 6.36364 24.388 6.40569 24.318C6.44774 24.234 6.37765 24.15 6.22347 24.08C6.0833 24.01 5.97116 23.996 5.92911 24.08C5.90107 24.15 5.95714 24.248 6.11133 24.318Z" fill="#DDE5ED"/>
<path d="M6.50381 23.562C6.70005 23.66 6.75611 23.786 6.70005 23.912C6.64398 24.024 6.50381 24.038 6.30757 23.94C6.12535 23.842 6.05526 23.702 6.12535 23.59C6.18142 23.478 6.32159 23.464 6.50381 23.562ZM6.34962 23.87C6.48979 23.954 6.60193 23.954 6.64398 23.884C6.68603 23.8 6.61594 23.716 6.47577 23.646C6.3356 23.576 6.22347 23.562 6.18142 23.632C6.13936 23.702 6.19543 23.786 6.34962 23.87Z" fill="#DDE5ED"/>
<path d="M6.43372 23.212V23.338L6.36364 23.324V23.17L6.40569 23.1L6.96637 23.408L6.92432 23.478L6.43372 23.212Z" fill="#DDE5ED"/>
<path d="M6.9944 22.68C7.17662 22.792 7.24671 22.918 7.17662 23.044C7.12056 23.156 6.96637 23.17 6.78415 23.058C6.60193 22.946 6.54586 22.82 6.60193 22.708C6.68603 22.596 6.8262 22.582 6.9944 22.68ZM6.84022 22.988C6.98039 23.072 7.09252 23.072 7.13457 23.002C7.17662 22.932 7.10654 22.834 6.96637 22.75C6.8262 22.666 6.71406 22.652 6.67201 22.736C6.62996 22.806 6.68603 22.904 6.84022 22.988Z" fill="#DDE5ED"/>
<path d="M7.37286 22.064C7.55508 22.176 7.62517 22.302 7.54107 22.428C7.47098 22.54 7.33081 22.54 7.14859 22.442C6.96637 22.33 6.9103 22.19 6.98039 22.078C7.05047 21.966 7.19064 21.966 7.37286 22.064ZM7.19064 22.372C7.33081 22.456 7.44295 22.456 7.485 22.4C7.52705 22.33 7.47098 22.232 7.33081 22.148C7.19064 22.064 7.09252 22.05 7.03645 22.12C6.9944 22.19 7.05047 22.288 7.19064 22.372Z" fill="#DDE5ED"/>
<path d="M7.31679 21.728L7.30278 21.854L7.23269 21.84L7.24671 21.686L7.28876 21.63L7.83543 21.966L7.79337 22.036L7.31679 21.728Z" fill="#DDE5ED"/>
<path d="M7.58312 21.294L7.5691 21.42L7.49902 21.392L7.51303 21.238L7.55508 21.182L8.08773 21.532L8.04568 21.602L7.58312 21.294Z" fill="#DDE5ED"/>
<path d="M8.18585 20.804C8.36807 20.93 8.42414 21.056 8.34004 21.182C8.26995 21.28 8.12978 21.294 7.94756 21.182C7.76534 21.07 7.72329 20.916 7.79337 20.818C7.87748 20.678 8.01765 20.678 8.18585 20.804ZM8.00363 21.084C8.1438 21.182 8.24192 21.182 8.29799 21.126C8.35406 21.056 8.28397 20.958 8.1438 20.874C8.01765 20.79 7.90551 20.762 7.84944 20.832C7.82141 20.902 7.86346 21 8.00363 21.084Z" fill="#DDE5ED"/>
<path d="M8.15782 20.44L8.1438 20.566L8.07371 20.538L8.08773 20.384L8.12978 20.328L8.64841 20.692L8.60636 20.762L8.15782 20.44Z" fill="#DDE5ED"/>
<path d="M8.77457 19.964C8.95679 20.09 8.99884 20.23 8.91474 20.342C8.84465 20.44 8.70448 20.44 8.52226 20.328C8.35406 20.202 8.312 20.062 8.38209 19.95C8.46619 19.838 8.60636 19.852 8.77457 19.964ZM8.57833 20.258C8.7185 20.356 8.81662 20.37 8.85867 20.3C8.91474 20.23 8.84465 20.132 8.7185 20.034C8.59234 19.936 8.48021 19.922 8.43816 19.992C8.39611 20.062 8.43816 20.16 8.57833 20.258Z" fill="#DDE5ED"/>
<path d="M9.06892 19.558C9.23713 19.684 9.2932 19.824 9.20909 19.936C9.13901 20.034 8.98482 20.034 8.81662 19.908C8.64841 19.782 8.60636 19.642 8.67645 19.53C8.76055 19.432 8.91474 19.446 9.06892 19.558ZM8.87269 19.852C9.01286 19.95 9.11098 19.964 9.15303 19.908C9.20909 19.838 9.15303 19.74 9.01286 19.642C8.8867 19.544 8.77457 19.516 8.73251 19.586C8.69046 19.642 8.73251 19.74 8.87269 19.852Z" fill="#DDE5ED"/>
<path d="M9.05491 19.208L9.04089 19.334L8.98482 19.306L9.01286 19.152L9.05491 19.096L9.55952 19.488L9.50345 19.558L9.05491 19.208Z" fill="#DDE5ED"/>
<path d="M9.82584 18.606C9.99405 18.746 10.0361 18.872 9.952 18.984C9.8679 19.082 9.72773 19.068 9.55952 18.942C9.39132 18.802 9.36328 18.662 9.43337 18.564C9.51747 18.466 9.65764 18.48 9.82584 18.606ZM9.61559 18.886C9.74174 18.984 9.85388 19.012 9.89593 18.942C9.952 18.872 9.89593 18.774 9.76978 18.676C9.64362 18.578 9.5455 18.55 9.48944 18.62C9.43337 18.676 9.47542 18.774 9.61559 18.886Z" fill="#DDE5ED"/>
<path d="M9.81183 18.256L9.78379 18.382L9.72773 18.354L9.75576 18.2L9.79781 18.144L10.2884 18.55L10.2323 18.62L9.81183 18.256Z" fill="#DDE5ED"/>
<path d="M10.1342 17.85L10.1062 17.976L10.0501 17.948L10.0782 17.794L10.1202 17.738L10.6108 18.158L10.5547 18.228L10.1342 17.85Z" fill="#DDE5ED"/>
<path d="M10.807 17.444C10.9752 17.584 11.0033 17.724 10.9192 17.836C10.8351 17.934 10.6949 17.92 10.5267 17.78C10.3585 17.64 10.3305 17.5 10.4146 17.402C10.5127 17.29 10.6528 17.304 10.807 17.444ZM10.5828 17.71C10.7089 17.822 10.807 17.836 10.8631 17.78C10.9192 17.71 10.8771 17.612 10.751 17.514C10.6388 17.416 10.5267 17.374 10.4706 17.444C10.4146 17.5 10.4566 17.598 10.5828 17.71Z" fill="#DDE5ED"/>
<path d="M10.807 17.094L10.779 17.22L10.7229 17.192L10.765 17.038L10.807 16.982L11.2836 17.402L11.2275 17.458L10.807 17.094Z" fill="#DDE5ED"/>
<path d="M11.1434 16.716L11.1154 16.842L11.0593 16.814L11.1014 16.66L11.1575 16.604L11.634 17.038L11.578 17.094L11.1434 16.716Z" fill="#DDE5ED"/>
<path d="M11.4799 16.338L11.4518 16.464L11.3958 16.436L11.4378 16.282L11.4939 16.226L11.9564 16.66L11.9004 16.716L11.4799 16.338Z" fill="#DDE5ED"/>
<path d="M12.1667 15.96C12.3209 16.114 12.3489 16.254 12.2508 16.352C12.1667 16.436 12.0265 16.422 11.8723 16.282C11.7181 16.128 11.6901 15.988 11.7882 15.89C11.8863 15.792 12.0125 15.82 12.1667 15.96ZM11.9284 16.212C12.0546 16.324 12.1527 16.352 12.2087 16.296C12.2648 16.226 12.2228 16.128 12.1106 16.016C11.9985 15.904 11.9004 15.862 11.8303 15.932C11.7742 15.988 11.8022 16.1 11.9284 16.212Z" fill="#DDE5ED"/>
<path d="M12.6573 15.456C12.8115 15.61 12.8395 15.75 12.7414 15.848C12.6573 15.932 12.5171 15.918 12.3629 15.764C12.2087 15.61 12.1947 15.47 12.2788 15.372C12.3769 15.274 12.5171 15.302 12.6573 15.456ZM12.433 15.708C12.5451 15.82 12.6573 15.848 12.7134 15.792C12.7694 15.736 12.7274 15.624 12.6152 15.512C12.5031 15.4 12.405 15.358 12.3349 15.428C12.2788 15.484 12.3069 15.582 12.433 15.708Z" fill="#DDE5ED"/>
<path d="M12.6993 15.092L12.6573 15.218L12.6012 15.19L12.6433 15.036L12.6993 14.98L13.1479 15.428L13.0918 15.484L12.6993 15.092Z" fill="#DDE5ED"/>
<path d="M13.0638 14.742L13.0217 14.868L12.9657 14.826L13.0077 14.672L13.0638 14.616L13.5123 15.078L13.4563 15.134L13.0638 14.742Z" fill="#DDE5ED"/>
<path d="M13.7506 14.392C13.9048 14.546 13.9188 14.686 13.8207 14.784C13.7366 14.868 13.5824 14.84 13.4422 14.686C13.3021 14.532 13.2881 14.378 13.3722 14.294C13.4703 14.21 13.6104 14.252 13.7506 14.392ZM13.5123 14.644C13.6245 14.77 13.7226 14.798 13.7786 14.742C13.8487 14.686 13.8067 14.574 13.6945 14.462C13.5824 14.35 13.4843 14.294 13.4282 14.364C13.3722 14.406 13.3862 14.518 13.5123 14.644Z" fill="#DDE5ED"/>
<path d="M14.1291 14.056C14.2692 14.21 14.2973 14.364 14.1992 14.448C14.101 14.532 13.9609 14.504 13.8207 14.35C13.6805 14.196 13.6665 14.042 13.7646 13.958C13.8487 13.874 13.9889 13.902 14.1291 14.056ZM13.8768 14.294C13.9889 14.42 14.087 14.448 14.1431 14.392C14.2132 14.336 14.1711 14.224 14.059 14.112C13.9469 14 13.8487 13.944 13.7927 14.014C13.7366 14.07 13.7646 14.168 13.8768 14.294Z" fill="#DDE5ED"/>
<path d="M14.1711 13.706L14.1291 13.832L14.073 13.79L14.1291 13.636L14.1851 13.58L14.6057 14.056L14.5496 14.112L14.1711 13.706Z" fill="#DDE5ED"/>
<path d="M14.5496 13.37L14.5075 13.496L14.4515 13.454L14.5075 13.3L14.5636 13.258L14.9841 13.734L14.928 13.79L14.5496 13.37Z" fill="#DDE5ED"/>
<path d="M14.9421 13.034L14.9 13.146L14.8439 13.104L14.9 12.964L14.9561 12.922L15.3626 13.412L15.2925 13.468L14.9421 13.034Z" fill="#DDE5ED"/>
<path d="M15.8251 12.6C15.9653 12.768 15.9793 12.908 15.8672 13.006C15.7691 13.09 15.6289 13.048 15.5027 12.88C15.3626 12.712 15.3626 12.572 15.4607 12.488C15.5588 12.404 15.685 12.446 15.8251 12.6ZM15.5588 12.824C15.6709 12.95 15.7691 12.992 15.8251 12.936C15.8952 12.88 15.8672 12.768 15.755 12.642C15.6569 12.516 15.5588 12.46 15.4887 12.53C15.4327 12.586 15.4467 12.698 15.5588 12.824Z" fill="#DDE5ED"/>
<path d="M16.2176 12.292C16.3578 12.46 16.3578 12.6 16.2597 12.698C16.1615 12.782 16.0214 12.74 15.8952 12.572C15.755 12.404 15.755 12.25 15.8672 12.18C15.9513 12.082 16.0915 12.138 16.2176 12.292ZM15.9513 12.516C16.0494 12.642 16.1475 12.684 16.2176 12.642C16.2877 12.586 16.2597 12.474 16.1475 12.348C16.0494 12.222 15.9513 12.166 15.8812 12.222C15.8251 12.278 15.8392 12.376 15.9513 12.516Z" fill="#DDE5ED"/>
<path d="M16.2877 11.942L16.2316 12.054L16.1756 12.012L16.2456 11.872L16.3017 11.83L16.6942 12.334L16.6241 12.39L16.2877 11.942Z" fill="#DDE5ED"/>
<path d="M17.0166 11.676C17.1427 11.844 17.1568 11.998 17.0446 12.082C16.9465 12.152 16.8063 12.11 16.6802 11.942C16.554 11.774 16.554 11.62 16.6521 11.55C16.7643 11.466 16.8904 11.508 17.0166 11.676ZM16.7503 11.886C16.8484 12.012 16.9465 12.068 17.0166 12.012C17.0867 11.956 17.0586 11.858 16.9605 11.718C16.8624 11.592 16.7783 11.536 16.6942 11.592C16.6241 11.648 16.6381 11.76 16.7503 11.886Z" fill="#DDE5ED"/>
<path d="M17.4231 11.382C17.5492 11.55 17.5632 11.704 17.4371 11.788C17.339 11.858 17.1988 11.816 17.0726 11.648C16.9465 11.48 16.9465 11.326 17.0586 11.256C17.1708 11.158 17.3109 11.214 17.4231 11.382ZM17.1568 11.592C17.2549 11.732 17.353 11.774 17.4091 11.718C17.4791 11.662 17.4511 11.564 17.353 11.424C17.2549 11.298 17.1708 11.242 17.1007 11.298C17.0446 11.34 17.0446 11.452 17.1568 11.592Z" fill="#DDE5ED"/>
<path d="M17.8296 11.088C17.9557 11.27 17.9557 11.41 17.8436 11.494C17.7455 11.564 17.6053 11.522 17.4791 11.354C17.353 11.186 17.367 11.032 17.4651 10.962C17.5913 10.864 17.7174 10.92 17.8296 11.088ZM17.5632 11.298C17.6614 11.438 17.7595 11.48 17.8156 11.438C17.8856 11.382 17.8576 11.284 17.7735 11.144C17.6894 11.018 17.5913 10.962 17.5212 11.004C17.4511 11.046 17.4651 11.158 17.5632 11.298Z" fill="#DDE5ED"/>
<path d="M18.2501 10.794C18.3762 10.976 18.3762 11.116 18.2641 11.2C18.166 11.27 18.0258 11.228 17.8997 11.046C17.7735 10.864 17.7875 10.724 17.8997 10.654C18.0118 10.57 18.1379 10.626 18.2501 10.794ZM17.9697 11.004C18.0679 11.144 18.166 11.186 18.222 11.144C18.2921 11.088 18.2641 10.99 18.18 10.85C18.0959 10.724 17.9978 10.654 17.9277 10.71C17.8716 10.752 17.8716 10.864 17.9697 11.004Z" fill="#DDE5ED"/>
<path d="M18.6706 10.514C18.7967 10.696 18.7967 10.836 18.6706 10.92C18.5725 10.99 18.4323 10.934 18.3061 10.766C18.194 10.584 18.194 10.444 18.3061 10.374C18.4323 10.29 18.5585 10.346 18.6706 10.514ZM18.3902 10.71C18.4884 10.85 18.5725 10.892 18.6426 10.85C18.7126 10.794 18.6986 10.696 18.6005 10.556C18.5164 10.43 18.4183 10.36 18.3482 10.416C18.2921 10.458 18.2921 10.57 18.3902 10.71Z" fill="#DDE5ED"/>
<path d="M19.2733 10.122C19.3855 10.304 19.3855 10.444 19.2733 10.528C19.1752 10.598 19.035 10.542 18.9229 10.36C18.8108 10.178 18.8248 10.038 18.9229 9.96802C19.035 9.89802 19.1612 9.95402 19.2733 10.122ZM18.993 10.318C19.0771 10.458 19.1752 10.514 19.2453 10.472C19.3154 10.43 19.3014 10.318 19.2173 10.178C19.1332 10.052 19.0491 9.98202 18.9649 10.024C18.8949 10.066 18.8949 10.178 18.993 10.318Z" fill="#DDE5ED"/>
<path d="M19.3714 9.78602L19.3014 9.89802L19.2593 9.85602L19.3434 9.71602L19.3995 9.67402L19.7359 10.22L19.6658 10.262L19.3714 9.78602Z" fill="#DDE5ED"/>
<path d="M20.1284 9.59002C20.2405 9.77202 20.2405 9.91202 20.1143 9.99602C20.0022 10.066 19.8761 10.01 19.7639 9.82802C19.6518 9.64602 19.6658 9.49202 19.7779 9.43602C19.9041 9.36602 20.0302 9.42202 20.1284 9.59002ZM19.834 9.78602C19.9181 9.92602 20.0162 9.98202 20.0863 9.94002C20.1564 9.89802 20.1424 9.78602 20.0583 9.64602C19.9742 9.50602 19.8901 9.45002 19.806 9.49202C19.7499 9.53402 19.7499 9.63202 19.834 9.78602Z" fill="#DDE5ED"/>
<path d="M20.5629 9.33802C20.675 9.52002 20.661 9.67402 20.5349 9.74402C20.4227 9.80002 20.2966 9.74402 20.1844 9.56202C20.0723 9.38002 20.1003 9.22602 20.2125 9.17002C20.3386 9.10002 20.4648 9.17002 20.5629 9.33802ZM20.2685 9.52002C20.3526 9.66002 20.4508 9.71602 20.5068 9.67402C20.5769 9.63202 20.5629 9.52002 20.4788 9.38002C20.3947 9.24002 20.3106 9.17002 20.2405 9.22602C20.1844 9.26802 20.1844 9.38002 20.2685 9.52002Z" fill="#DDE5ED"/>
<path d="M21.0114 9.08602C21.1236 9.26802 21.1096 9.42202 20.9834 9.49202C20.8713 9.54802 20.7451 9.49202 20.633 9.31002C20.5208 9.12802 20.5489 8.97402 20.661 8.91802C20.7731 8.84802 20.8993 8.91802 21.0114 9.08602ZM20.7031 9.26802C20.7872 9.40802 20.8713 9.46402 20.9413 9.43602C21.0114 9.39402 20.9974 9.28202 20.9273 9.14202C20.8432 9.00202 20.7591 8.93202 20.689 8.97402C20.619 9.01602 20.619 9.11402 20.7031 9.26802Z" fill="#DDE5ED"/>
<path d="M21.1376 8.76402L21.0675 8.87602L21.0255 8.82002L21.1096 8.69402L21.1796 8.65202L21.488 9.21202L21.4179 9.25402L21.1376 8.76402Z" fill="#DDE5ED"/>
<path d="M21.8945 8.61002C21.9926 8.80602 21.9786 8.94602 21.8525 9.01602C21.7403 9.07202 21.6142 9.01602 21.516 8.82002C21.4179 8.63802 21.446 8.48402 21.5581 8.42802C21.6702 8.35802 21.7964 8.42802 21.8945 8.61002ZM21.6002 8.77802C21.6843 8.91802 21.7684 8.98802 21.8384 8.94602C21.9225 8.90402 21.9085 8.79202 21.8244 8.65202C21.7543 8.51202 21.6702 8.44202 21.5861 8.48402C21.516 8.52602 21.516 8.62402 21.6002 8.77802Z" fill="#DDE5ED"/>
<path d="M22.0207 8.28802L21.9506 8.38602L21.9085 8.33002L21.9926 8.20402L22.0627 8.17602L22.3571 8.73602L22.287 8.77802L22.0207 8.28802Z" fill="#DDE5ED"/>
<path d="M22.9878 8.06402C23.086 8.26002 23.0579 8.40002 22.9318 8.47002C22.8196 8.52602 22.6935 8.45602 22.5954 8.27402C22.4972 8.07802 22.5393 7.93802 22.6514 7.88202C22.7776 7.81202 22.8897 7.88202 22.9878 8.06402ZM22.6795 8.21802C22.7495 8.37202 22.8336 8.42802 22.9037 8.40002C22.9878 8.35802 22.9738 8.24602 22.9037 8.10602C22.8336 7.96602 22.7495 7.89602 22.6795 7.92402C22.6094 7.96602 22.5954 8.06402 22.6795 8.21802Z" fill="#DDE5ED"/>
<path d="M23.128 7.74202L23.0579 7.84002L23.0159 7.78402L23.114 7.65802L23.1841 7.63002L23.4504 8.20402L23.3803 8.24602L23.128 7.74202Z" fill="#DDE5ED"/>
<path d="M23.5906 7.51802L23.5065 7.61602L23.4644 7.56002L23.5625 7.43402L23.6326 7.40602L23.8989 7.98002L23.8289 8.00802L23.5906 7.51802Z" fill="#DDE5ED"/>
<path d="M24.3615 7.43402C24.4456 7.63002 24.4176 7.77002 24.2914 7.82602C24.1793 7.88202 24.0531 7.79802 23.969 7.61602C23.8849 7.42002 23.927 7.28002 24.0391 7.22402C24.1653 7.16802 24.2774 7.25202 24.3615 7.43402ZM24.0531 7.58802C24.1232 7.74202 24.2073 7.81202 24.2774 7.77002C24.3615 7.72802 24.3615 7.63002 24.2914 7.47602C24.2213 7.33602 24.1512 7.25202 24.0671 7.29402C23.9971 7.32202 23.983 7.42002 24.0531 7.58802Z" fill="#DDE5ED"/>
<path d="M24.8381 7.23802C24.9222 7.43402 24.8942 7.57402 24.768 7.63002C24.6559 7.67202 24.5297 7.60202 24.4456 7.40602C24.3615 7.21002 24.4036 7.07002 24.5157 7.01402C24.6418 6.97202 24.754 7.05602 24.8381 7.23802ZM24.5157 7.37802C24.5858 7.53202 24.6699 7.60202 24.74 7.57402C24.8241 7.54602 24.8241 7.43402 24.754 7.28002C24.6979 7.14002 24.6138 7.05602 24.5297 7.08402C24.4596 7.11202 24.4456 7.22402 24.5157 7.37802Z" fill="#DDE5ED"/>
<path d="M24.9923 6.91602L24.9082 7.01402L24.8661 6.95802L24.9642 6.83202L25.0343 6.80402L25.2726 7.39202L25.1885 7.42002L24.9923 6.91602Z" fill="#DDE5ED"/>
<path d="M25.7772 6.86002C25.8613 7.05602 25.8193 7.19602 25.6931 7.25202C25.581 7.29402 25.4548 7.22402 25.3707 7.02802C25.2866 6.83202 25.3427 6.69202 25.4548 6.63602C25.581 6.59402 25.6931 6.67802 25.7772 6.86002ZM25.4548 7.00002C25.5109 7.15402 25.595 7.22402 25.6651 7.19602C25.7492 7.16802 25.7492 7.05602 25.6931 6.90202C25.6371 6.76202 25.567 6.67802 25.4829 6.70602C25.4128 6.73402 25.3848 6.83202 25.4548 7.00002Z" fill="#DDE5ED"/>
<path d="M26.2398 6.69202C26.3099 6.90202 26.2818 7.04202 26.1557 7.08402C26.0436 7.12602 25.9174 7.04202 25.8473 6.84602C25.7772 6.65002 25.8193 6.51002 25.9454 6.45402C26.0576 6.41202 26.1697 6.49602 26.2398 6.69202ZM25.9174 6.81802C25.9735 6.97202 26.0576 7.04202 26.1277 7.01402C26.2118 6.98602 26.2118 6.87402 26.1557 6.72002C26.0996 6.58002 26.0295 6.49602 25.9454 6.52402C25.8753 6.55202 25.8613 6.65002 25.9174 6.81802Z" fill="#DDE5ED"/>
<path d="M26.9126 6.44002C26.9827 6.65002 26.9547 6.79002 26.8145 6.83202C26.7024 6.87402 26.5762 6.79002 26.5061 6.59402C26.436 6.39802 26.4781 6.25802 26.6042 6.20202C26.7304 6.17402 26.8425 6.25802 26.9126 6.44002ZM26.5902 6.56602C26.6463 6.72002 26.7304 6.79002 26.8005 6.76202C26.8846 6.73402 26.8846 6.62202 26.8285 6.46802C26.7724 6.31402 26.7023 6.23002 26.6182 6.27202C26.5482 6.30002 26.5341 6.41202 26.5902 6.56602Z" fill="#DDE5ED"/>
<path d="M27.0948 6.14602L27.0107 6.24402L26.9687 6.18802L27.0808 6.07602L27.1509 6.04802L27.3612 6.65002L27.277 6.67802L27.0948 6.14602Z" fill="#DDE5ED"/>
<path d="M27.5854 5.97802L27.5013 6.07602L27.4593 6.02002L27.5714 5.90802L27.6415 5.88002L27.8377 6.48202L27.7536 6.51002L27.5854 5.97802Z" fill="#DDE5ED"/>
<path d="M28.062 5.82402L27.9779 5.90802L27.9358 5.85202L28.048 5.74002L28.1181 5.71202L28.3003 6.32802L28.2162 6.35602L28.062 5.82402Z" fill="#DDE5ED"/>
<path d="M28.847 5.83802C28.903 6.04802 28.861 6.18802 28.7348 6.21602C28.6087 6.24402 28.4965 6.16002 28.4405 5.96402C28.3844 5.75402 28.4405 5.61402 28.5666 5.58602C28.6788 5.54402 28.7909 5.64202 28.847 5.83802ZM28.5105 5.95002C28.5526 6.10402 28.6367 6.18802 28.7068 6.16002C28.7909 6.13202 28.8049 6.02002 28.7629 5.86602C28.7208 5.71202 28.6507 5.62802 28.5666 5.65602C28.4965 5.67002 28.4685 5.78202 28.5105 5.95002Z" fill="#DDE5ED"/>
<path d="M29.0432 5.54402L28.9451 5.62802L28.917 5.57202L29.0292 5.46002L29.0993 5.44602L29.2675 6.06202L29.1834 6.09002L29.0432 5.54402Z" fill="#DDE5ED"/>
<path d="M29.8141 5.57202C29.8702 5.78202 29.8281 5.92202 29.688 5.95002C29.5618 5.97802 29.4497 5.89402 29.3936 5.68402C29.3376 5.47402 29.3936 5.33402 29.5198 5.30602C29.6599 5.27802 29.7721 5.37602 29.8141 5.57202ZM29.4917 5.67002C29.5338 5.82402 29.6039 5.90802 29.688 5.89402C29.7721 5.86602 29.7861 5.76802 29.744 5.60002C29.702 5.44602 29.6319 5.36202 29.5478 5.37602C29.4777 5.40402 29.4497 5.50202 29.4917 5.67002Z" fill="#DDE5ED"/>
<path d="M30.0244 5.27802L29.9263 5.36202L29.8982 5.30602L30.0104 5.19402L30.0805 5.18002L30.2346 5.79602L30.1505 5.81002L30.0244 5.27802Z" fill="#DDE5ED"/>
<path d="M31.0056 5.29202C31.0476 5.50202 31.0056 5.64202 30.8654 5.67002C30.7393 5.69802 30.6411 5.60002 30.5851 5.40402C30.543 5.19402 30.5991 5.05402 30.7252 5.02602C30.8514 4.99802 30.9635 5.09602 31.0056 5.29202ZM30.6692 5.37602C30.7112 5.54402 30.7813 5.61402 30.8514 5.60002C30.9355 5.58602 30.9495 5.47402 30.9215 5.30602C30.8794 5.15202 30.8234 5.06802 30.7393 5.08202C30.6692 5.11002 30.6271 5.20802 30.6692 5.37602Z" fill="#DDE5ED"/>
<path d="M31.2158 5.01202L31.1177 5.09602L31.0897 5.04002L31.2158 4.94202L31.2859 4.92802L31.4261 5.55802L31.342 5.57202L31.2158 5.01202Z" fill="#DDE5ED"/>
<path d="M31.7204 4.90002L31.6223 4.98402L31.5943 4.92802L31.7204 4.83002L31.7905 4.81602L31.9167 5.44602L31.8326 5.46002L31.7204 4.90002Z" fill="#DDE5ED"/>
<path d="M32.4914 4.98402C32.5334 5.19402 32.4774 5.33402 32.3372 5.36202C32.211 5.39002 32.1129 5.29202 32.0709 5.08202C32.0288 4.87202 32.0989 4.74602 32.2251 4.71802C32.3512 4.69002 32.4493 4.78802 32.4914 4.98402ZM32.155 5.06802C32.183 5.23602 32.2531 5.32002 32.3372 5.30602C32.4213 5.29202 32.4493 5.18002 32.4213 5.02602C32.3933 4.87202 32.3372 4.77402 32.2391 4.78802C32.155 4.78802 32.1129 4.90002 32.155 5.06802Z" fill="#DDE5ED"/>
<path d="M32.996 4.90002C33.038 5.11002 32.968 5.25002 32.8418 5.26402C32.7157 5.29202 32.6175 5.18002 32.5755 4.98402C32.5334 4.77402 32.6035 4.64802 32.7437 4.62002C32.8558 4.60602 32.9539 4.70402 32.996 4.90002ZM32.6456 4.97002C32.6736 5.13802 32.7437 5.22202 32.8138 5.20802C32.8979 5.19402 32.9259 5.08202 32.8979 4.92802C32.8698 4.77402 32.8138 4.67602 32.7297 4.69002C32.6596 4.70402 32.6175 4.80202 32.6456 4.97002Z" fill="#DDE5ED"/>
<path d="M33.4866 4.81602C33.5146 5.02602 33.4586 5.16602 33.3184 5.18002C33.1922 5.19402 33.0941 5.09602 33.0521 4.88602C33.024 4.67602 33.0941 4.55002 33.2203 4.52202C33.3604 4.52202 33.4586 4.62002 33.4866 4.81602ZM33.1502 4.88602C33.1782 5.05402 33.2483 5.13802 33.3184 5.12402C33.4025 5.11002 33.4305 4.99802 33.4025 4.84402C33.3745 4.69002 33.3184 4.59202 33.2343 4.60602C33.1642 4.62002 33.1222 4.71802 33.1502 4.88602Z" fill="#DDE5ED"/>
<path d="M33.7249 4.55002L33.6268 4.62002L33.5987 4.56402L33.7249 4.46602L33.795 4.45202L33.8931 5.08202L33.809 5.09602L33.7249 4.55002Z" fill="#DDE5ED"/>
<path d="M34.2295 4.48002L34.1314 4.55002L34.1033 4.49402L34.2295 4.39602L34.2996 4.38202L34.3837 5.01202L34.2996 5.02602L34.2295 4.48002Z" fill="#DDE5ED"/>
<path d="M35.1967 4.59202C35.2247 4.80202 35.1546 4.94202 35.0145 4.95602C34.8883 4.97002 34.7902 4.85802 34.7621 4.66202C34.7341 4.45202 34.8182 4.32602 34.9444 4.31202C35.0845 4.28402 35.1827 4.39602 35.1967 4.59202ZM34.8603 4.64802C34.8743 4.81602 34.9444 4.90002 35.0145 4.88602C35.0986 4.87202 35.1266 4.77402 35.1126 4.60602C35.0986 4.45202 35.0425 4.35402 34.9584 4.36802C34.8743 4.36802 34.8322 4.46602 34.8603 4.64802Z" fill="#DDE5ED"/>
<path d="M35.435 4.34002L35.3228 4.41002L35.2948 4.34002L35.4209 4.25602L35.491 4.24202L35.5611 4.87202L35.477 4.88602L35.435 4.34002Z" fill="#DDE5ED"/>
<path d="M35.9536 4.28402L35.8415 4.35402L35.8134 4.28402L35.9396 4.20002H36.0097L36.0657 4.83002L35.9816 4.84402L35.9536 4.28402Z" fill="#DDE5ED"/>
<path d="M36.7105 4.45202C36.7245 4.66202 36.6544 4.78802 36.5143 4.80202C36.3881 4.81602 36.29 4.70402 36.276 4.49402C36.262 4.28402 36.3461 4.15802 36.4722 4.14402C36.6124 4.14402 36.6965 4.25602 36.7105 4.45202ZM36.3601 4.49402C36.3741 4.66202 36.4302 4.74602 36.5143 4.74602C36.5984 4.74602 36.6404 4.63402 36.6264 4.46602C36.6124 4.31202 36.5703 4.21402 36.4722 4.21402C36.4021 4.21402 36.3461 4.31202 36.3601 4.49402Z" fill="#DDE5ED"/>
<path d="M37.2151 4.42402C37.2291 4.63402 37.1591 4.76002 37.0189 4.77402C36.8927 4.78802 36.8086 4.67602 36.7806 4.46602C36.7666 4.25602 36.8507 4.13002 36.9768 4.11602C37.117 4.10202 37.2011 4.21402 37.2151 4.42402ZM36.8647 4.45202C36.8787 4.62002 36.9348 4.70402 37.0049 4.70402C37.089 4.70402 37.131 4.59202 37.117 4.42402C37.103 4.27002 37.0609 4.17202 36.9768 4.17202C36.9067 4.18602 36.8507 4.28402 36.8647 4.45202Z" fill="#DDE5ED"/>
<path d="M37.7197 4.39602C37.7338 4.60602 37.6637 4.73202 37.5235 4.74602C37.3973 4.74602 37.3132 4.64802 37.2992 4.42402C37.2852 4.21402 37.3693 4.08802 37.4955 4.08802C37.6216 4.07402 37.7057 4.18602 37.7197 4.39602ZM37.3693 4.42402C37.3833 4.59202 37.4394 4.67602 37.5095 4.67602C37.5936 4.67602 37.6356 4.56402 37.6216 4.41002C37.6076 4.25602 37.5655 4.15802 37.4814 4.15802C37.4114 4.14402 37.3553 4.24202 37.3693 4.42402Z" fill="#DDE5ED"/>
<path d="M38.2244 4.36802C38.2384 4.57802 38.1543 4.70402 38.0141 4.71802C37.8879 4.71802 37.8038 4.60602 37.7898 4.39602C37.7758 4.18602 37.8739 4.06002 38.0001 4.06002C38.1262 4.04602 38.2103 4.15802 38.2244 4.36802ZM37.8739 4.39602C37.8879 4.56402 37.93 4.64802 38.0141 4.64802C38.0982 4.64802 38.1403 4.53602 38.1262 4.38202C38.1262 4.22802 38.0702 4.13002 37.9861 4.13002C37.916 4.13002 37.8739 4.21402 37.8739 4.39602Z" fill="#DDE5ED"/>
<path d="M38.4767 4.13002L38.3645 4.20002L38.3505 4.13002L38.4907 4.04602H38.5608L38.5748 4.67602H38.4907L38.4767 4.13002Z" fill="#DDE5ED"/>
<path d="M76.8133 36.05C76.6031 36.092 76.4629 36.022 76.4489 35.882C76.4349 35.756 76.533 35.658 76.7433 35.616C76.9535 35.574 77.0797 35.658 77.1077 35.784C77.1217 35.924 77.0096 36.022 76.8133 36.05ZM76.7433 35.714C76.5751 35.742 76.4909 35.812 76.505 35.882C76.519 35.966 76.6311 35.994 76.7853 35.966C76.9395 35.938 77.0376 35.882 77.0236 35.798C77.0096 35.728 76.9115 35.686 76.7433 35.714Z" fill="#DDE5ED"/>
<path d="M77.0797 36.288L77.0096 36.19L77.0656 36.162L77.1638 36.288L77.1778 36.358L76.547 36.456L76.533 36.372L77.0797 36.288Z" fill="#DDE5ED"/>
<path d="M77.1498 36.792L77.0797 36.694L77.1357 36.666L77.2339 36.792L77.2479 36.862L76.6171 36.946L76.6031 36.862L77.1498 36.792Z" fill="#DDE5ED"/>
<path d="M77.2058 37.296L77.1357 37.184L77.2058 37.156L77.2899 37.282L77.3039 37.352L76.6732 37.422L76.6592 37.338L77.2058 37.296Z" fill="#DDE5ED"/>
<path d="M77.0516 38.066C76.8414 38.094 76.7152 38.024 76.7012 37.884C76.6872 37.758 76.7993 37.66 77.0096 37.646C77.2198 37.618 77.346 37.702 77.36 37.828C77.374 37.954 77.2619 38.038 77.0516 38.066ZM77.0096 37.716C76.8414 37.73 76.7573 37.786 76.7573 37.87C76.7713 37.954 76.8694 37.996 77.0376 37.968C77.1918 37.954 77.2899 37.898 77.2899 37.814C77.2899 37.744 77.1918 37.702 77.0096 37.716Z" fill="#DDE5ED"/>
<path d="M77.318 38.304L77.2479 38.192L77.318 38.164L77.4021 38.29V38.36L76.7713 38.416L76.7573 38.332L77.318 38.304Z" fill="#DDE5ED"/>
<path d="M77.1357 39.074C76.9255 39.088 76.7993 39.018 76.7853 38.878C76.7713 38.752 76.8834 38.668 77.0937 38.64C77.3039 38.626 77.4301 38.71 77.4441 38.836C77.4581 38.962 77.346 39.06 77.1357 39.074ZM77.1077 38.724C76.9395 38.738 76.8554 38.794 76.8554 38.878C76.8554 38.962 76.9675 39.004 77.1357 38.99C77.2899 38.976 77.388 38.934 77.388 38.836C77.374 38.766 77.2759 38.71 77.1077 38.724Z" fill="#DDE5ED"/>
<path d="M77.1638 39.578C76.9535 39.592 76.8274 39.522 76.8133 39.382C76.7993 39.256 76.9115 39.172 77.1217 39.158C77.332 39.144 77.4581 39.228 77.4721 39.354C77.4862 39.48 77.374 39.564 77.1638 39.578ZM77.1357 39.228C76.9675 39.242 76.8834 39.298 76.8834 39.368C76.8834 39.452 76.9956 39.494 77.1638 39.48C77.318 39.466 77.4161 39.424 77.4161 39.34C77.4021 39.27 77.318 39.214 77.1357 39.228Z" fill="#DDE5ED"/>
<path d="M77.2058 40.278C76.9956 40.292 76.8694 40.208 76.8554 40.068C76.8554 39.942 76.9675 39.858 77.1778 39.844C77.388 39.83 77.5142 39.928 77.5142 40.054C77.5282 40.194 77.4021 40.278 77.2058 40.278ZM77.1778 39.942C77.0096 39.956 76.9255 39.998 76.9255 40.082C76.9255 40.166 77.0376 40.208 77.1918 40.194C77.346 40.194 77.4441 40.138 77.4441 40.054C77.4441 39.984 77.346 39.928 77.1778 39.942Z" fill="#DDE5ED"/>
<path d="M77.4441 40.544L77.388 40.432L77.4581 40.418L77.5422 40.558V40.628L76.9115 40.642V40.558L77.4441 40.544Z" fill="#DDE5ED"/>
<path d="M77.4581 41.048L77.4021 40.936L77.4721 40.922L77.5562 41.062V41.132L76.9255 41.146V41.062L77.4581 41.048Z" fill="#DDE5ED"/>
<path d="M77.2339 41.804C77.0236 41.804 76.8974 41.72 76.8974 41.58C76.8974 41.454 77.0096 41.37 77.2198 41.37C77.4301 41.37 77.5562 41.454 77.5562 41.594C77.5562 41.72 77.4301 41.79 77.2339 41.804ZM77.2198 41.454C77.0516 41.454 76.9535 41.51 76.9535 41.58C76.9535 41.664 77.0516 41.706 77.2198 41.706C77.374 41.706 77.4862 41.664 77.4862 41.58C77.4862 41.51 77.388 41.454 77.2198 41.454Z" fill="#DDE5ED"/>
<path d="M77.4581 42.07L77.4021 41.958L77.4721 41.944L77.5422 42.084V42.154H76.8974V42.07H77.4581Z" fill="#DDE5ED"/>
<path d="M77.4581 42.574L77.4021 42.462L77.4721 42.448L77.5422 42.588V42.658L76.9115 42.644V42.56L77.4581 42.574Z" fill="#DDE5ED"/>
<path d="M77.4441 43.078L77.388 42.966L77.4581 42.952L77.5282 43.092V43.162L76.8834 43.148V43.064L77.4441 43.078Z" fill="#DDE5ED"/>
<path d="M77.4301 43.596L77.374 43.484L77.4441 43.47L77.5142 43.61V43.68L76.8834 43.652V43.568L77.4301 43.596Z" fill="#DDE5ED"/>
<path d="M77.1498 44.534C76.9395 44.52 76.8133 44.436 76.8274 44.296C76.8414 44.17 76.9535 44.1 77.1638 44.1C77.374 44.114 77.4862 44.212 77.4862 44.338C77.4721 44.478 77.346 44.548 77.1498 44.534ZM77.1498 44.184C76.9815 44.17 76.8834 44.226 76.8834 44.296C76.8834 44.38 76.9815 44.436 77.1357 44.436C77.2899 44.45 77.4021 44.408 77.4021 44.324C77.4161 44.254 77.332 44.198 77.1498 44.184Z" fill="#DDE5ED"/>
<path d="M77.36 44.814L77.3039 44.702L77.374 44.688L77.4441 44.828V44.898L76.8133 44.856V44.772L77.36 44.814Z" fill="#DDE5ED"/>
<path d="M77.318 45.318L77.2619 45.206L77.332 45.192L77.388 45.332V45.402L76.7573 45.346L76.7713 45.262L77.318 45.318Z" fill="#DDE5ED"/>
<path d="M77.2759 45.822L77.2339 45.71L77.3039 45.696L77.36 45.836V45.906L76.7292 45.85L76.7433 45.766L77.2759 45.822Z" fill="#DDE5ED"/>
<path d="M76.9675 46.536C76.7573 46.508 76.6451 46.424 76.6592 46.284C76.6732 46.158 76.7993 46.088 77.0096 46.116C77.2198 46.144 77.332 46.242 77.318 46.368C77.2899 46.494 77.1638 46.564 76.9675 46.536ZM76.9956 46.2C76.8274 46.186 76.7292 46.228 76.7292 46.298C76.7152 46.382 76.8133 46.438 76.9815 46.452C77.1357 46.466 77.2479 46.438 77.2479 46.354C77.2479 46.284 77.1638 46.214 76.9956 46.2Z" fill="#DDE5ED"/>
<path d="M76.9115 47.04C76.7012 47.012 76.5891 46.914 76.6031 46.774C76.6171 46.648 76.7433 46.578 76.9535 46.606C77.1638 46.634 77.2759 46.732 77.2619 46.872C77.2339 46.998 77.1077 47.068 76.9115 47.04ZM76.9395 46.69C76.7713 46.676 76.6732 46.704 76.6592 46.788C76.6451 46.872 76.7433 46.928 76.9115 46.956C77.0657 46.97 77.1778 46.942 77.1918 46.858C77.1918 46.774 77.1077 46.718 76.9395 46.69Z" fill="#DDE5ED"/>
<path d="M77.1077 47.334L77.0656 47.208L77.1357 47.194L77.1918 47.348L77.1778 47.418L76.547 47.334L76.561 47.25L77.1077 47.334Z" fill="#DDE5ED"/>
<path d="M76.7713 48.034C76.561 48.006 76.4489 47.908 76.4769 47.768C76.4909 47.642 76.6171 47.572 76.8274 47.6C77.0376 47.628 77.1357 47.74 77.1217 47.866C77.0937 48.006 76.9675 48.076 76.7713 48.034ZM76.8133 47.698C76.6451 47.67 76.547 47.712 76.533 47.782C76.519 47.866 76.6171 47.922 76.7713 47.95C76.9255 47.978 77.0376 47.95 77.0516 47.866C77.0656 47.796 76.9815 47.726 76.8133 47.698Z" fill="#DDE5ED"/>
<path d="M76.6592 48.748C76.4489 48.706 76.3368 48.608 76.3648 48.482C76.3788 48.356 76.519 48.3 76.7152 48.328C76.9255 48.356 77.0236 48.468 77.0096 48.594C76.9815 48.72 76.8554 48.776 76.6592 48.748ZM76.7012 48.398C76.533 48.37 76.4349 48.412 76.4209 48.482C76.4068 48.566 76.505 48.622 76.6592 48.65C76.8133 48.678 76.9255 48.65 76.9395 48.566C76.9535 48.496 76.8694 48.426 76.7012 48.398Z" fill="#DDE5ED"/>
<path d="M76.8414 49.042L76.7993 48.916H76.8694L76.9115 49.07L76.8974 49.14L76.2667 49.028L76.2807 48.944L76.8414 49.042Z" fill="#DDE5ED"/>
<path d="M76.7433 49.546L76.7012 49.42H76.7713L76.8133 49.574L76.7993 49.644L76.1686 49.518L76.1826 49.434L76.7433 49.546Z" fill="#DDE5ED"/>
<path d="M76.6451 50.05L76.6031 49.924H76.6732L76.7152 50.078L76.7012 50.148L76.0704 50.022L76.0845 49.938L76.6451 50.05Z" fill="#DDE5ED"/>
<path d="M76.2667 50.722C76.0564 50.68 75.9583 50.568 75.9863 50.428C76.0144 50.302 76.1405 50.246 76.3508 50.288C76.561 50.33 76.6592 50.442 76.6311 50.582C76.6031 50.722 76.4629 50.764 76.2667 50.722ZM76.3228 50.386C76.1545 50.344 76.0564 50.386 76.0424 50.456C76.0284 50.54 76.1125 50.61 76.2807 50.638C76.4349 50.666 76.547 50.652 76.561 50.568C76.5751 50.498 76.505 50.414 76.3228 50.386Z" fill="#DDE5ED"/>
<path d="M76.1545 51.212C75.9443 51.17 75.8462 51.058 75.8742 50.918C75.9022 50.792 76.0284 50.736 76.2387 50.792C76.4489 50.834 76.547 50.96 76.505 51.086C76.4769 51.212 76.3508 51.268 76.1545 51.212ZM76.2246 50.876C76.0564 50.834 75.9583 50.862 75.9443 50.946C75.9303 51.03 76.0144 51.1 76.1686 51.128C76.3228 51.17 76.4349 51.142 76.4489 51.058C76.4629 50.988 76.3928 50.918 76.2246 50.876Z" fill="#DDE5ED"/>
<path d="M76.3087 51.534L76.2807 51.408H76.3508L76.3928 51.562L76.3788 51.632L75.7621 51.478L75.7761 51.394L76.3087 51.534Z" fill="#DDE5ED"/>
<path d="M76.1826 52.024L76.1545 51.898H76.2246L76.2667 52.052L76.2527 52.122L75.6359 51.968L75.6639 51.884L76.1826 52.024Z" fill="#DDE5ED"/>
<path d="M75.72 52.878C75.5098 52.822 75.4116 52.71 75.4537 52.57C75.4817 52.444 75.6219 52.402 75.8322 52.458C76.0424 52.514 76.1265 52.64 76.0985 52.766C76.0424 52.892 75.9163 52.934 75.72 52.878ZM75.8041 52.542C75.6499 52.5 75.5378 52.528 75.5238 52.598C75.4957 52.682 75.5939 52.752 75.7481 52.794C75.9022 52.836 76.0144 52.822 76.0284 52.738C76.0424 52.668 75.9723 52.598 75.8041 52.542Z" fill="#DDE5ED"/>
<path d="M75.5658 53.368C75.3556 53.312 75.2715 53.2 75.2995 53.06C75.3416 52.934 75.4677 52.892 75.678 52.948C75.8882 53.004 75.9723 53.13 75.9303 53.256C75.9022 53.382 75.7621 53.424 75.5658 53.368ZM75.6639 53.032C75.5098 52.99 75.3976 53.004 75.3836 53.088C75.3556 53.172 75.4397 53.242 75.6079 53.284C75.7621 53.326 75.8742 53.326 75.8882 53.228C75.9022 53.158 75.8321 53.088 75.6639 53.032Z" fill="#DDE5ED"/>
<path d="M75.72 53.69L75.692 53.564H75.7621L75.7901 53.718L75.7621 53.788L75.1593 53.606L75.1874 53.522L75.72 53.69Z" fill="#DDE5ED"/>
<path d="M75.2715 54.334C75.0612 54.264 74.9771 54.152 75.0192 54.026C75.0612 53.914 75.2014 53.858 75.3976 53.928C75.5939 53.998 75.678 54.124 75.6499 54.236C75.5939 54.362 75.4677 54.39 75.2715 54.334ZM75.3696 53.998C75.2154 53.942 75.1033 53.97 75.0892 54.04C75.0612 54.124 75.1453 54.194 75.2995 54.25C75.4537 54.292 75.5658 54.292 75.5798 54.208C75.6079 54.138 75.5238 54.054 75.3696 53.998Z" fill="#DDE5ED"/>
<path d="M75.1033 54.81C74.893 54.74 74.8089 54.628 74.851 54.488C74.893 54.376 75.0332 54.334 75.2294 54.39C75.4257 54.46 75.5098 54.586 75.4677 54.712C75.4397 54.838 75.2995 54.88 75.1033 54.81ZM75.2014 54.474C75.0472 54.418 74.9351 54.432 74.907 54.516C74.879 54.6 74.9631 54.67 75.1173 54.726C75.2715 54.782 75.3696 54.768 75.4116 54.684C75.4397 54.614 75.3696 54.53 75.2014 54.474Z" fill="#DDE5ED"/>
<path d="M74.9351 55.286C74.7248 55.216 74.6407 55.104 74.6968 54.964C74.7388 54.852 74.879 54.81 75.0752 54.88C75.2715 54.95 75.3556 55.076 75.3135 55.202C75.2715 55.314 75.1313 55.356 74.9351 55.286ZM75.0472 54.95C74.893 54.894 74.7809 54.908 74.7528 54.992C74.7248 55.076 74.8089 55.146 74.9631 55.202C75.1173 55.258 75.2154 55.244 75.2575 55.16C75.2715 55.09 75.2014 55.006 75.0472 54.95Z" fill="#DDE5ED"/>
<path d="M74.7669 55.762C74.5706 55.692 74.4865 55.566 74.5286 55.44C74.5706 55.328 74.7108 55.286 74.907 55.356C75.1033 55.426 75.1874 55.552 75.1453 55.678C75.0892 55.804 74.9491 55.832 74.7669 55.762ZM74.879 55.426C74.7248 55.37 74.6127 55.384 74.5846 55.454C74.5566 55.538 74.6407 55.608 74.7949 55.664C74.9351 55.72 75.0472 55.72 75.0893 55.636C75.1033 55.58 75.0332 55.496 74.879 55.426Z" fill="#DDE5ED"/>
<path d="M74.5846 56.224C74.3884 56.14 74.3043 56.028 74.3463 55.902C74.3884 55.79 74.5286 55.748 74.7248 55.818C74.921 55.902 75.0051 56.028 74.9491 56.14C74.907 56.28 74.7668 56.308 74.5846 56.224ZM74.6968 55.902C74.5426 55.846 74.4304 55.86 74.4024 55.93C74.3744 56.014 74.4445 56.084 74.5986 56.154C74.7388 56.21 74.851 56.21 74.893 56.126C74.921 56.056 74.851 55.972 74.6968 55.902Z" fill="#DDE5ED"/>
<path d="M74.3043 56.896C74.1081 56.812 74.024 56.7 74.08 56.56C74.1221 56.448 74.2622 56.406 74.4585 56.49C74.6547 56.574 74.7248 56.7 74.6828 56.826C74.6407 56.938 74.5005 56.966 74.3043 56.896ZM74.4305 56.574C74.2763 56.504 74.1641 56.518 74.1361 56.588C74.1081 56.672 74.1781 56.742 74.3323 56.812C74.4725 56.868 74.5846 56.868 74.6267 56.784C74.6547 56.714 74.5987 56.63 74.4305 56.574Z" fill="#DDE5ED"/>
<path d="M74.4164 57.232L74.4024 57.106L74.4725 57.12L74.4865 57.274L74.4585 57.344L73.8698 57.092L73.8978 57.022L74.4164 57.232Z" fill="#DDE5ED"/>
<path d="M73.9118 57.82C73.7156 57.736 73.6315 57.61 73.7016 57.484C73.7576 57.372 73.8978 57.344 74.094 57.428C74.2903 57.512 74.3604 57.652 74.3043 57.764C74.2342 57.876 74.094 57.904 73.9118 57.82ZM74.038 57.498C73.8838 57.428 73.7857 57.442 73.7436 57.512C73.7016 57.596 73.7857 57.68 73.9399 57.736C74.08 57.806 74.1922 57.806 74.2342 57.722C74.2622 57.652 74.1922 57.568 74.038 57.498Z" fill="#DDE5ED"/>
<path d="M73.6875 58.282C73.4913 58.198 73.4212 58.072 73.4773 57.946C73.5334 57.834 73.6735 57.806 73.8698 57.89C74.066 57.974 74.1361 58.114 74.08 58.226C74.0239 58.338 73.8838 58.366 73.6875 58.282ZM73.8277 57.96C73.6735 57.89 73.5754 57.904 73.5333 57.974C73.4913 58.058 73.5754 58.142 73.7156 58.198C73.8557 58.268 73.9679 58.268 74.0099 58.184C74.052 58.114 73.9819 58.03 73.8277 57.96Z" fill="#DDE5ED"/>
<path d="M73.4773 58.73C73.281 58.632 73.211 58.506 73.267 58.38C73.3231 58.268 73.4633 58.24 73.6595 58.338C73.8557 58.436 73.9258 58.562 73.8698 58.674C73.7997 58.8 73.6595 58.814 73.4773 58.73ZM73.6175 58.408C73.4633 58.338 73.3651 58.338 73.3231 58.408C73.281 58.492 73.3652 58.576 73.5053 58.646C73.6455 58.716 73.7576 58.716 73.7997 58.646C73.8277 58.576 73.7716 58.492 73.6175 58.408Z" fill="#DDE5ED"/>
<path d="M73.5614 59.08V58.954L73.6315 58.968V59.122L73.6034 59.192L73.0287 58.912L73.0708 58.842L73.5614 59.08Z" fill="#DDE5ED"/>
<path d="M73.0147 59.626C72.8185 59.528 72.7484 59.402 72.8185 59.276C72.8746 59.164 73.0147 59.15 73.211 59.234C73.4072 59.332 73.4633 59.472 73.4072 59.584C73.3371 59.71 73.197 59.724 73.0147 59.626ZM73.1689 59.318C73.0287 59.248 72.9166 59.248 72.8746 59.318C72.8325 59.402 72.9026 59.486 73.0568 59.556C73.1969 59.626 73.3091 59.64 73.3511 59.556C73.3792 59.486 73.3231 59.402 73.1689 59.318Z" fill="#DDE5ED"/>
<path d="M73.0988 59.976V59.85L73.1689 59.864V60.018L73.1409 60.088L72.5802 59.794L72.6222 59.724L73.0988 59.976Z" fill="#DDE5ED"/>
<path d="M72.426 60.704C72.2438 60.592 72.1737 60.466 72.2438 60.34C72.2999 60.228 72.454 60.214 72.6363 60.312C72.8185 60.41 72.8746 60.55 72.8185 60.662C72.7484 60.788 72.6082 60.802 72.426 60.704ZM72.5942 60.396C72.4541 60.312 72.3419 60.312 72.2999 60.382C72.2578 60.452 72.3279 60.55 72.4681 60.62C72.6082 60.69 72.7204 60.718 72.7624 60.634C72.7905 60.578 72.7484 60.48 72.5942 60.396Z" fill="#DDE5ED"/>
<path d="M72.4961 61.054V60.928L72.5662 60.942V61.096L72.5241 61.166L71.9775 60.844L72.0195 60.774L72.4961 61.054Z" fill="#DDE5ED"/>
<path d="M72.2438 61.488V61.362L72.3139 61.376L72.2999 61.53L72.2578 61.586L71.7111 61.25L71.7532 61.18L72.2438 61.488Z" fill="#DDE5ED"/>
<path d="M71.9775 61.922L71.9915 61.796L72.0616 61.81L72.0476 61.964L72.0055 62.02L71.4588 61.684L71.5009 61.614L71.9775 61.922Z" fill="#DDE5ED"/>
<path d="M71.3747 62.426C71.1925 62.314 71.1364 62.174 71.2065 62.062C71.2766 61.964 71.4168 61.95 71.599 62.062C71.7812 62.174 71.8233 62.314 71.7532 62.426C71.6971 62.538 71.5429 62.538 71.3747 62.426ZM71.557 62.132C71.4168 62.048 71.3046 62.034 71.2626 62.104C71.2205 62.174 71.2766 62.272 71.4168 62.356C71.5429 62.44 71.6551 62.468 71.7111 62.384C71.7532 62.314 71.6971 62.216 71.557 62.132Z" fill="#DDE5ED"/>
<path d="M71.4168 62.776L71.4308 62.65L71.5009 62.678L71.4869 62.832L71.4448 62.888L70.9122 62.538L70.9542 62.468L71.4168 62.776Z" fill="#DDE5ED"/>
<path d="M71.1364 63.196L71.1505 63.07L71.2205 63.098L71.2065 63.252L71.1645 63.308L70.6458 62.944L70.6879 62.874L71.1364 63.196Z" fill="#DDE5ED"/>
<path d="M70.5197 63.672C70.3375 63.546 70.2954 63.406 70.3795 63.294C70.4496 63.196 70.5898 63.196 70.772 63.308C70.9402 63.434 70.9823 63.574 70.9122 63.686C70.8281 63.798 70.6879 63.784 70.5197 63.672ZM70.7159 63.392C70.5758 63.294 70.4776 63.28 70.4356 63.35C70.3795 63.42 70.4496 63.518 70.5758 63.616C70.7019 63.7 70.8141 63.728 70.8561 63.658C70.8982 63.588 70.8561 63.49 70.7159 63.392Z" fill="#DDE5ED"/>
<path d="M70.0992 64.246C69.931 64.12 69.8749 63.98 69.959 63.868C70.0291 63.77 70.1833 63.77 70.3515 63.896C70.5197 64.022 70.5617 64.162 70.4917 64.274C70.4076 64.372 70.2534 64.372 70.0992 64.246ZM70.2954 63.966C70.1693 63.868 70.0571 63.854 70.0151 63.91C69.959 63.98 70.0151 64.078 70.1553 64.176C70.2814 64.274 70.3935 64.302 70.4356 64.232C70.4776 64.162 70.4356 64.064 70.2954 63.966Z" fill="#DDE5ED"/>
<path d="M70.1132 64.596L70.1272 64.47L70.1833 64.498L70.1553 64.652L70.1132 64.708L69.6086 64.316L69.6647 64.246L70.1132 64.596Z" fill="#DDE5ED"/>
<path d="M69.8048 65.002L69.8329 64.876L69.8889 64.904L69.8609 65.058L69.8188 65.114L69.3142 64.722L69.3703 64.652L69.8048 65.002Z" fill="#DDE5ED"/>
<path d="M69.16 65.436C68.9918 65.296 68.9498 65.156 69.0339 65.058C69.118 64.96 69.2582 64.974 69.4264 65.1C69.5946 65.24 69.6226 65.38 69.5385 65.478C69.4544 65.59 69.3142 65.562 69.16 65.436ZM69.3703 65.17C69.2441 65.072 69.132 65.044 69.09 65.1C69.0339 65.17 69.09 65.268 69.2161 65.366C69.3423 65.464 69.4404 65.492 69.4965 65.436C69.5385 65.38 69.4965 65.282 69.3703 65.17Z" fill="#DDE5ED"/>
<path d="M68.8377 65.828C68.6694 65.688 68.6274 65.548 68.7255 65.436C68.8096 65.338 68.9498 65.352 69.118 65.478C69.2862 65.618 69.3142 65.758 69.2301 65.856C69.132 65.968 68.9918 65.954 68.8377 65.828ZM69.0479 65.548C68.9218 65.436 68.8096 65.422 68.7676 65.478C68.7115 65.548 68.7676 65.646 68.8937 65.744C69.0199 65.842 69.118 65.884 69.1741 65.814C69.2161 65.772 69.1881 65.66 69.0479 65.548Z" fill="#DDE5ED"/>
<path d="M68.8377 66.178L68.8657 66.052L68.9218 66.08L68.8937 66.234L68.8517 66.29L68.3751 65.87L68.4312 65.8L68.8377 66.178Z" fill="#DDE5ED"/>
<path d="M68.1788 66.584C68.0106 66.444 67.9826 66.304 68.0667 66.192C68.1508 66.094 68.291 66.108 68.4592 66.248C68.6274 66.388 68.6554 66.528 68.5713 66.626C68.4732 66.738 68.333 66.724 68.1788 66.584ZM68.3891 66.318C68.263 66.206 68.1648 66.192 68.1088 66.248C68.0527 66.318 68.0947 66.416 68.2209 66.514C68.333 66.612 68.4452 66.654 68.5012 66.584C68.5573 66.528 68.5293 66.43 68.3891 66.318Z" fill="#DDE5ED"/>
<path d="M68.1648 66.948L68.1929 66.822L68.2489 66.85L68.2069 67.004L68.1508 67.06L67.6742 66.626L67.7303 66.57L68.1648 66.948Z" fill="#DDE5ED"/>
<path d="M67.3378 67.48C67.1836 67.326 67.1416 67.186 67.2397 67.088C67.3238 67.004 67.464 67.018 67.6182 67.158C67.7724 67.298 67.8004 67.452 67.7023 67.55C67.6322 67.648 67.492 67.62 67.3378 67.48ZM67.5761 67.228C67.45 67.116 67.3518 67.088 67.2958 67.144C67.2397 67.214 67.2818 67.312 67.3939 67.424C67.506 67.536 67.6042 67.578 67.6742 67.508C67.7303 67.438 67.7023 67.34 67.5761 67.228Z" fill="#DDE5ED"/>
<path d="M67.3238 67.83L67.3659 67.704L67.4219 67.732L67.3799 67.886L67.3238 67.942L66.8612 67.494L66.9173 67.438L67.3238 67.83Z" fill="#DDE5ED"/>
<path d="M66.9594 68.194L67.0014 68.068L67.0575 68.096L67.0154 68.25L66.9594 68.306L66.5108 67.858L66.5669 67.802L66.9594 68.194Z" fill="#DDE5ED"/>
<path d="M66.6089 68.558L66.651 68.432L66.7071 68.474L66.665 68.628L66.6089 68.684L66.1604 68.222L66.2165 68.166L66.6089 68.558Z" fill="#DDE5ED"/>
<path d="M65.9081 68.908C65.7539 68.754 65.7399 68.614 65.838 68.516C65.9221 68.432 66.0763 68.46 66.2165 68.614C66.3706 68.768 66.3847 68.922 66.2865 69.006C66.1884 69.09 66.0483 69.048 65.9081 68.908ZM66.1464 68.656C66.0342 68.53 65.9361 68.502 65.8801 68.558C65.81 68.614 65.852 68.726 65.9642 68.838C66.0763 68.95 66.1744 68.992 66.2305 68.936C66.3006 68.894 66.2725 68.782 66.1464 68.656Z" fill="#DDE5ED"/>
<path d="M65.5436 69.244C65.3895 69.09 65.3754 68.936 65.4736 68.852C65.5717 68.768 65.7118 68.796 65.852 68.95C65.9922 69.104 66.0062 69.258 65.9221 69.342C65.81 69.44 65.6698 69.398 65.5436 69.244ZM65.7819 69.006C65.6698 68.88 65.5717 68.852 65.5156 68.908C65.4455 68.964 65.4876 69.076 65.5997 69.188C65.7118 69.3 65.81 69.356 65.866 69.286C65.9221 69.244 65.9081 69.132 65.7819 69.006Z" fill="#DDE5ED"/>
<path d="M65.4876 69.608L65.5296 69.482L65.5857 69.524L65.5296 69.678L65.4736 69.734L65.039 69.258L65.0951 69.202L65.4876 69.608Z" fill="#DDE5ED"/>
<path d="M64.7867 69.93C64.6466 69.762 64.6185 69.622 64.7307 69.538C64.8288 69.454 64.9689 69.482 65.1091 69.65C65.2493 69.804 65.2633 69.958 65.1652 70.042C65.0531 70.112 64.9129 70.07 64.7867 69.93ZM65.039 69.692C64.9269 69.566 64.8288 69.538 64.7727 69.58C64.7026 69.636 64.7447 69.748 64.8568 69.86C64.9549 69.972 65.0531 70.028 65.1231 69.972C65.1652 69.93 65.1512 69.818 65.039 69.692Z" fill="#DDE5ED"/>
<path d="M64.2401 70.392C64.0999 70.224 64.0859 70.084 64.184 69.986C64.2821 69.902 64.4223 69.944 64.5625 70.098C64.7026 70.266 64.7026 70.406 64.6045 70.49C64.5064 70.588 64.3662 70.546 64.2401 70.392ZM64.4924 70.154C64.3802 70.028 64.2821 69.986 64.226 70.042C64.156 70.098 64.198 70.21 64.2961 70.322C64.3943 70.448 64.4924 70.49 64.5625 70.434C64.6325 70.392 64.6045 70.294 64.4924 70.154Z" fill="#DDE5ED"/>
<path d="M64.184 70.742L64.226 70.63L64.2821 70.672L64.226 70.812L64.17 70.854L63.7635 70.364L63.8336 70.308L64.184 70.742Z" fill="#DDE5ED"/>
<path d="M63.7915 71.064L63.8476 70.952L63.9037 70.994L63.8476 71.134L63.7915 71.176L63.385 70.686L63.4551 70.63L63.7915 71.064Z" fill="#DDE5ED"/>
<path d="M63.385 71.372L63.4411 71.26L63.4972 71.302L63.4271 71.442L63.371 71.484L62.9785 70.98L63.0486 70.924L63.385 71.372Z" fill="#DDE5ED"/>
<path d="M62.9925 71.68L63.0486 71.568L63.1047 71.61L63.0346 71.75L62.9785 71.792L62.5861 71.288L62.6561 71.232L62.9925 71.68Z" fill="#DDE5ED"/>
<path d="M62.2496 71.946C62.1235 71.778 62.1095 71.624 62.2216 71.54C62.3197 71.47 62.4599 71.512 62.5861 71.68C62.7122 71.848 62.7122 72.002 62.6001 72.072C62.516 72.156 62.3758 72.114 62.2496 71.946ZM62.53 71.736C62.4319 71.596 62.3337 71.554 62.2777 71.61C62.2076 71.666 62.2356 71.764 62.3337 71.904C62.4319 72.03 62.516 72.086 62.5861 72.03C62.6421 71.974 62.6281 71.876 62.53 71.736Z" fill="#DDE5ED"/>
<path d="M61.8432 72.24C61.717 72.058 61.717 71.918 61.8291 71.834C61.9273 71.764 62.0674 71.806 62.1936 71.974C62.3197 72.142 62.3197 72.296 62.2076 72.366C62.0955 72.464 61.9693 72.408 61.8432 72.24ZM62.1235 72.03C62.0254 71.89 61.9273 71.848 61.8712 71.89C61.8011 71.946 61.8291 72.044 61.9273 72.184C62.0254 72.31 62.1095 72.366 62.1796 72.324C62.2356 72.282 62.2216 72.17 62.1235 72.03Z" fill="#DDE5ED"/>
<path d="M61.759 72.59L61.8151 72.478L61.8712 72.52L61.8011 72.66L61.745 72.702L61.3806 72.184L61.4507 72.142L61.759 72.59Z" fill="#DDE5ED"/>
<path d="M60.8479 72.926C60.7218 72.744 60.7218 72.604 60.8479 72.52C60.9461 72.45 61.0862 72.506 61.2124 72.674C61.3385 72.856 61.3245 72.996 61.2124 73.066C61.0862 73.15 60.9601 73.094 60.8479 72.926ZM61.1283 72.73C61.0302 72.59 60.9461 72.548 60.876 72.59C60.8059 72.646 60.8199 72.744 60.918 72.884C61.0021 73.01 61.1002 73.08 61.1703 73.024C61.2264 72.982 61.2264 72.87 61.1283 72.73Z" fill="#DDE5ED"/>
<path d="M60.7498 73.276L60.8059 73.164L60.862 73.206L60.7919 73.346L60.7358 73.388L60.3854 72.856L60.4555 72.814L60.7498 73.276Z" fill="#DDE5ED"/>
<path d="M60.3153 73.556L60.3854 73.444L60.4414 73.486L60.3573 73.626L60.3013 73.668L59.9649 73.136L60.035 73.094L60.3153 73.556Z" fill="#DDE5ED"/>
<path d="M59.8808 73.822L59.9509 73.71L59.9929 73.752L59.9088 73.892L59.8527 73.934L59.5163 73.388L59.5864 73.346L59.8808 73.822Z" fill="#DDE5ED"/>
<path d="M59.1238 74.004C59.0117 73.822 59.0257 73.668 59.1379 73.598C59.25 73.528 59.3762 73.598 59.4883 73.766C59.6004 73.948 59.5724 74.102 59.4743 74.158C59.3621 74.242 59.236 74.186 59.1238 74.004ZM59.4182 73.822C59.3341 73.682 59.236 73.626 59.1799 73.668C59.1098 73.71 59.1238 73.822 59.2079 73.962C59.292 74.102 59.3762 74.158 59.4462 74.116C59.5163 74.074 59.5163 73.962 59.4182 73.822Z" fill="#DDE5ED"/>
<path d="M59.0117 74.34L59.0818 74.228L59.1238 74.27L59.0397 74.41L58.9697 74.452L58.6473 73.906L58.7174 73.864L59.0117 74.34Z" fill="#DDE5ED"/>
<path d="M58.5632 74.592L58.6332 74.48L58.6753 74.536L58.5912 74.676L58.5211 74.718L58.2127 74.158L58.2828 74.116L58.5632 74.592Z" fill="#DDE5ED"/>
<path d="M58.1286 74.844L58.1987 74.732L58.2408 74.788L58.1567 74.914L58.0866 74.956L57.7782 74.396L57.8483 74.354L58.1286 74.844Z" fill="#DDE5ED"/>
<path d="M57.1755 75.082C57.0774 74.886 57.0914 74.746 57.2175 74.676C57.3297 74.62 57.4558 74.69 57.5539 74.872C57.6521 75.068 57.624 75.208 57.5119 75.264C57.3857 75.334 57.2736 75.264 57.1755 75.082ZM57.4839 74.914C57.4138 74.774 57.3156 74.704 57.2456 74.746C57.1615 74.788 57.1755 74.9 57.2456 75.04C57.3156 75.18 57.3997 75.25 57.4839 75.208C57.5539 75.166 57.5539 75.068 57.4839 74.914Z" fill="#DDE5ED"/>
<path d="M57.0353 75.404L57.1054 75.306L57.1474 75.362L57.0633 75.488L56.9933 75.516L56.7129 74.942L56.783 74.9L57.0353 75.404Z" fill="#DDE5ED"/>
<path d="M56.5868 75.628L56.6568 75.53L56.6989 75.586L56.6008 75.712L56.5307 75.74L56.2504 75.166L56.3204 75.124L56.5868 75.628Z" fill="#DDE5ED"/>
<path d="M55.8158 75.74C55.7177 75.544 55.7457 75.404 55.8719 75.348C55.984 75.292 56.1102 75.362 56.2083 75.558C56.2924 75.754 56.2644 75.894 56.1522 75.95C56.0261 76.006 55.8999 75.922 55.8158 75.74ZM56.1242 75.586C56.0541 75.432 55.97 75.376 55.8999 75.404C55.8158 75.446 55.8298 75.558 55.8999 75.698C55.97 75.838 56.0401 75.922 56.1242 75.88C56.1803 75.852 56.1943 75.74 56.1242 75.586Z" fill="#DDE5ED"/>
<path d="M55.6616 76.062L55.7457 75.964L55.7878 76.02L55.6897 76.146L55.6196 76.174L55.3533 75.6L55.4233 75.572L55.6616 76.062Z" fill="#DDE5ED"/>
<path d="M54.8907 76.16C54.8066 75.964 54.8346 75.824 54.9608 75.768C55.0729 75.712 55.1991 75.796 55.2832 75.978C55.3673 76.174 55.3252 76.314 55.2131 76.37C55.0869 76.426 54.9748 76.342 54.8907 76.16ZM55.1991 76.006C55.129 75.852 55.0449 75.782 54.9748 75.824C54.8907 75.866 54.8907 75.964 54.9608 76.118C55.0169 76.258 55.101 76.342 55.1851 76.3C55.2551 76.272 55.2692 76.174 55.1991 76.006Z" fill="#DDE5ED"/>
<path d="M54.4281 76.356C54.344 76.16 54.3721 76.02 54.4982 75.964C54.6104 75.922 54.7365 75.992 54.8206 76.188C54.9047 76.384 54.8627 76.524 54.7505 76.58C54.6244 76.622 54.4982 76.538 54.4281 76.356ZM54.7365 76.202C54.6664 76.048 54.5823 75.978 54.5122 76.02C54.4281 76.048 54.4281 76.16 54.4982 76.314C54.5543 76.454 54.6384 76.538 54.7225 76.496C54.7926 76.468 54.8066 76.37 54.7365 76.202Z" fill="#DDE5ED"/>
<path d="M53.9516 76.538C53.8675 76.342 53.8955 76.202 54.0357 76.146C54.1478 76.104 54.274 76.174 54.3581 76.37C54.4422 76.566 54.4001 76.706 54.274 76.762C54.1478 76.818 54.0357 76.734 53.9516 76.538ZM54.274 76.398C54.2179 76.244 54.1338 76.174 54.0497 76.202C53.9656 76.23 53.9656 76.342 54.0357 76.496C54.0917 76.636 54.1758 76.72 54.2599 76.692C54.33 76.664 54.344 76.566 54.274 76.398Z" fill="#DDE5ED"/>
<path d="M53.2928 76.804C53.2087 76.608 53.2507 76.468 53.3769 76.412C53.489 76.37 53.6152 76.44 53.6852 76.636C53.7693 76.832 53.7133 76.972 53.6011 77.028C53.475 77.07 53.3628 76.986 53.2928 76.804ZM53.6152 76.664C53.5591 76.51 53.475 76.44 53.4049 76.468C53.3208 76.496 53.3208 76.608 53.3769 76.762C53.4329 76.902 53.503 76.986 53.5871 76.958C53.6572 76.93 53.6712 76.832 53.6152 76.664Z" fill="#DDE5ED"/>
<path d="M53.1246 77.112L53.2087 77.014L53.2507 77.07L53.1526 77.182L53.0825 77.21L52.8582 76.608L52.9423 76.58L53.1246 77.112Z" fill="#DDE5ED"/>
<path d="M52.648 77.294L52.7321 77.196L52.7741 77.252L52.662 77.364L52.5919 77.392L52.3817 76.79L52.4658 76.762L52.648 77.294Z" fill="#DDE5ED"/>
<path d="M51.863 77.308C51.7929 77.098 51.835 76.958 51.9611 76.916C52.0733 76.874 52.1994 76.958 52.2695 77.154C52.3396 77.35 52.2835 77.49 52.1714 77.532C52.0452 77.588 51.9331 77.504 51.863 77.308ZM52.1854 77.196C52.1293 77.042 52.0593 76.972 51.9752 76.986C51.8911 77.014 51.8911 77.126 51.9331 77.28C51.9892 77.434 52.0593 77.518 52.1434 77.49C52.2275 77.462 52.2415 77.35 52.1854 77.196Z" fill="#DDE5ED"/>
<path d="M51.3864 77.476C51.3164 77.266 51.3584 77.126 51.4986 77.084C51.6107 77.042 51.7369 77.126 51.807 77.336C51.877 77.546 51.821 77.686 51.6948 77.714C51.5546 77.756 51.4425 77.658 51.3864 77.476ZM51.7088 77.35C51.6528 77.196 51.5827 77.126 51.4986 77.14C51.4145 77.168 51.4005 77.28 51.4565 77.434C51.5126 77.588 51.5827 77.672 51.6668 77.644C51.7369 77.63 51.7649 77.518 51.7088 77.35Z" fill="#DDE5ED"/>
<path d="M51.2042 77.77L51.2883 77.686L51.3304 77.742L51.2182 77.854L51.1482 77.882L50.9519 77.28L51.036 77.252L51.2042 77.77Z" fill="#DDE5ED"/>
<path d="M50.4193 77.77C50.3632 77.56 50.4053 77.42 50.5314 77.378C50.6576 77.336 50.7697 77.434 50.8258 77.63C50.8818 77.84 50.8398 77.98 50.7136 78.008C50.5875 78.05 50.4753 77.966 50.4193 77.77ZM50.7417 77.658C50.6996 77.504 50.6155 77.42 50.5454 77.448C50.4613 77.476 50.4473 77.588 50.5034 77.742C50.5454 77.896 50.6155 77.98 50.6996 77.952C50.7697 77.924 50.7977 77.826 50.7417 77.658Z" fill="#DDE5ED"/>
<path d="M50.223 78.064L50.3211 77.98L50.3492 78.036L50.237 78.148L50.167 78.162L49.9847 77.546L50.0688 77.518L50.223 78.064Z" fill="#DDE5ED"/>
<path d="M49.2418 78.092C49.1858 77.882 49.2278 77.742 49.368 77.714C49.4941 77.686 49.6063 77.77 49.6623 77.98C49.7184 78.19 49.6623 78.33 49.5362 78.358C49.396 78.386 49.2979 78.288 49.2418 78.092ZM49.5782 77.994C49.5362 77.84 49.4661 77.756 49.382 77.77C49.2979 77.798 49.2839 77.896 49.3259 78.064C49.368 78.218 49.4381 78.302 49.5222 78.288C49.5923 78.26 49.6203 78.162 49.5782 77.994Z" fill="#DDE5ED"/>
<path d="M49.0316 78.386L49.1297 78.302L49.1577 78.358L49.0456 78.47L48.9755 78.484L48.8213 77.868L48.9054 77.854L49.0316 78.386Z" fill="#DDE5ED"/>
<path d="M48.541 78.512L48.6391 78.428L48.6671 78.484L48.555 78.582L48.4849 78.596L48.3307 77.98L48.4148 77.966L48.541 78.512Z" fill="#DDE5ED"/>
<path d="M48.0504 78.624L48.1485 78.54L48.1765 78.596L48.0504 78.694L47.9803 78.708L47.8401 78.092L47.9242 78.078L48.0504 78.624Z" fill="#DDE5ED"/>
<path d="M47.2795 78.554C47.2374 78.344 47.2935 78.204 47.4196 78.176C47.5458 78.148 47.6439 78.246 47.7 78.456C47.742 78.666 47.6859 78.806 47.5598 78.82C47.4196 78.862 47.3215 78.75 47.2795 78.554ZM47.6159 78.47C47.5878 78.302 47.5177 78.232 47.4336 78.246C47.3495 78.26 47.3215 78.372 47.3636 78.526C47.3916 78.68 47.4617 78.778 47.5458 78.75C47.6159 78.75 47.6439 78.638 47.6159 78.47Z" fill="#DDE5ED"/>
<path d="M46.7748 78.652C46.7328 78.442 46.7889 78.302 46.929 78.274C47.0552 78.246 47.1533 78.344 47.1954 78.554C47.2374 78.764 47.1673 78.89 47.0412 78.918C46.915 78.96 46.8169 78.862 46.7748 78.652ZM47.1112 78.582C47.0832 78.414 47.0131 78.344 46.929 78.358C46.8449 78.372 46.8169 78.484 46.8589 78.638C46.887 78.792 46.943 78.89 47.0412 78.862C47.1112 78.848 47.1533 78.75 47.1112 78.582Z" fill="#DDE5ED"/>
<path d="M46.5646 78.932L46.6627 78.848L46.6907 78.904L46.5646 79.002L46.4945 79.016L46.3824 78.386L46.4665 78.372L46.5646 78.932Z" fill="#DDE5ED"/>
<path d="M45.7936 78.834C45.7516 78.624 45.8077 78.484 45.9478 78.47C46.074 78.442 46.1721 78.554 46.2142 78.75C46.2562 78.96 46.1861 79.086 46.06 79.114C45.9198 79.142 45.8217 79.044 45.7936 78.834ZM46.1301 78.764C46.102 78.596 46.0319 78.512 45.9619 78.526C45.8777 78.54 45.8497 78.652 45.8777 78.806C45.9058 78.96 45.9619 79.058 46.046 79.044C46.116 79.044 46.1581 78.946 46.1301 78.764Z" fill="#DDE5ED"/>
<path d="M45.0788 78.96C45.0507 78.75 45.1068 78.61 45.247 78.596C45.3731 78.582 45.4713 78.68 45.5133 78.89C45.5413 79.1 45.4713 79.226 45.3451 79.254C45.2049 79.254 45.1068 79.156 45.0788 78.96ZM45.4152 78.89C45.3872 78.722 45.3171 78.638 45.247 78.652C45.1629 78.666 45.1349 78.778 45.1629 78.932C45.1909 79.086 45.247 79.184 45.3311 79.17C45.4152 79.156 45.4432 79.058 45.4152 78.89Z" fill="#DDE5ED"/>
<path d="M44.8545 79.226L44.9526 79.156L44.9807 79.212L44.8545 79.31L44.7844 79.324L44.6863 78.694L44.7704 78.68L44.8545 79.226Z" fill="#DDE5ED"/>
<path d="M44.3499 79.296L44.448 79.226L44.476 79.282L44.3499 79.38L44.2798 79.394L44.1957 78.764L44.2798 78.75L44.3499 79.296Z" fill="#DDE5ED"/>
<path d="M43.579 79.156C43.5509 78.946 43.621 78.806 43.7612 78.792C43.8873 78.778 43.9854 78.876 44.0135 79.086C44.0415 79.296 43.9574 79.422 43.8313 79.436C43.6911 79.464 43.607 79.352 43.579 79.156ZM43.9154 79.1C43.9013 78.932 43.8313 78.848 43.7612 78.862C43.6771 78.876 43.649 78.974 43.6631 79.142C43.6771 79.296 43.7331 79.394 43.8172 79.38C43.9013 79.38 43.9434 79.282 43.9154 79.1Z" fill="#DDE5ED"/>
<path d="M43.0743 79.212C43.0463 79.002 43.1164 78.876 43.2566 78.848C43.3827 78.834 43.4808 78.946 43.5089 79.156C43.5369 79.366 43.4528 79.492 43.3267 79.506C43.1865 79.52 43.1024 79.408 43.0743 79.212ZM43.4248 79.17C43.4107 79.002 43.3407 78.918 43.2706 78.932C43.1865 78.946 43.1584 79.044 43.1725 79.212C43.1865 79.366 43.2425 79.464 43.3267 79.45C43.3967 79.436 43.4388 79.338 43.4248 79.17Z" fill="#DDE5ED"/>
<path d="M42.8361 79.464L42.9482 79.394L42.9762 79.464L42.8501 79.548L42.78 79.562L42.7239 78.932L42.808 78.918L42.8361 79.464Z" fill="#DDE5ED"/>
<path d="M42.0791 79.31C42.0651 79.1 42.1352 78.974 42.2754 78.96C42.4015 78.946 42.4996 79.058 42.5137 79.268C42.5277 79.478 42.4436 79.604 42.3174 79.618C42.1772 79.618 42.0931 79.506 42.0791 79.31ZM42.4155 79.268C42.4015 79.1 42.3455 79.016 42.2614 79.016C42.1773 79.03 42.1352 79.128 42.1492 79.296C42.1632 79.45 42.2053 79.548 42.3034 79.548C42.3875 79.534 42.4296 79.436 42.4155 79.268Z" fill="#DDE5ED"/>
<path d="M41.8268 79.562L41.939 79.492L41.967 79.562L41.8268 79.646H41.7567L41.7147 79.016H41.7988L41.8268 79.562Z" fill="#DDE5ED"/>
</g>
<defs>
<clipPath id="clip0_7302_3">
<rect width="79" height="84" fill="white"/>
</clipPath>
</defs>
</svg>
